<svg width="17" height="16" viewBox="0 0 17 16" fill="none" xmlns="http://www.w3.org/2000/svg">
<path fill-rule="evenodd" clip-rule="evenodd" d="M3.16671 4.5C2.70647 4.5 2.33337 4.8731 2.33337 5.33333V10.6667C2.33337 11.1269 2.70647 11.5 3.16671 11.5H9.83337C10.2936 11.5 10.6667 11.1269 10.6667 10.6667V8.6735C10.6666 8.66864 10.6666 8.66378 10.6667 8.65892V7.00949C10.6666 7.00347 10.6666 6.99746 10.6667 6.99145V5.33333C10.6667 4.8731 10.2936 4.5 9.83337 4.5H3.16671ZM11.6667 6.12939V5.33333C11.6667 4.32081 10.8459 3.5 9.83337 3.5H3.16671C2.15419 3.5 1.33337 4.32081 1.33337 5.33333V10.6667C1.33337 11.6792 2.15419 12.5 3.16671 12.5H9.83337C10.8459 12.5 11.6667 11.6792 11.6667 10.6667V9.60093L14.3717 11.4043C14.4972 11.4878 14.643 11.5357 14.7936 11.5429C14.9441 11.5501 15.0938 11.5163 15.2267 11.4452C15.3596 11.374 15.4707 11.2682 15.5482 11.1389C15.6257 11.0096 15.6666 10.8617 15.6667 10.7109V5.24681C15.6667 5.24677 15.6667 5.24686 15.6667 5.24681C15.6667 5.10024 15.6281 4.9561 15.5547 4.82923C15.4812 4.70231 15.3756 4.59702 15.2485 4.52398C15.1213 4.45094 14.9772 4.41274 14.8305 4.41324C14.6839 4.41374 14.54 4.45291 14.4134 4.52681L11.6667 6.12939ZM11.6667 7.28715V8.39908L14.6667 10.3991V5.53677L11.6667 7.28715Z" fill="#869198"/>
</svg>
