<svg width="20" height="20" viewBox="0 0 20 20" fill="none" xmlns="http://www.w3.org/2000/svg">
<rect width="20" height="20" rx="10" fill="#2E3DA3"/>
<path d="M7.8905 10.6725L6.90612 8.12187C6.87696 8.04604 6.84633 7.95854 6.81425 7.85937C6.78216 7.75729 6.75154 7.64937 6.72237 7.53562C6.66112 7.77187 6.59841 7.96875 6.53425 8.12625L5.54987 10.6725H7.8905ZM9.658 13H9.00175C8.92591 13 8.86466 12.981 8.818 12.9431C8.77133 12.9052 8.73633 12.8571 8.713 12.7987L8.12675 11.285H5.31362L4.72737 12.7987C4.70987 12.8512 4.67633 12.8979 4.62675 12.9387C4.57716 12.9796 4.51591 13 4.443 13H3.78675L6.29362 6.73062H7.15112L9.658 13ZM15.5967 11.705C15.6433 11.705 15.6842 11.724 15.7192 11.7619L16.056 12.125C15.7994 12.4225 15.4873 12.6544 15.1198 12.8206C14.7552 12.9869 14.3133 13.07 13.7942 13.07C13.345 13.07 12.9367 12.9927 12.5692 12.8381C12.2017 12.6806 11.8881 12.4619 11.6285 12.1819C11.3689 11.899 11.1677 11.5606 11.0248 11.1669C10.8819 10.7731 10.8104 10.34 10.8104 9.8675C10.8104 9.395 10.8848 8.96187 11.0335 8.56812C11.1823 8.17437 11.3908 7.83604 11.6592 7.55312C11.9304 7.27021 12.2542 7.05146 12.6304 6.89687C13.0067 6.73937 13.4223 6.66062 13.8773 6.66062C14.3235 6.66062 14.7173 6.73208 15.0585 6.875C15.3998 7.01792 15.7002 7.21187 15.9598 7.45687L15.6798 7.84625C15.6623 7.87542 15.6389 7.90021 15.6098 7.92062C15.5835 7.93812 15.5471 7.94687 15.5004 7.94687C15.4479 7.94687 15.3837 7.91917 15.3079 7.86375C15.2321 7.80542 15.1329 7.74125 15.0104 7.67125C14.8879 7.60125 14.7348 7.53854 14.551 7.48312C14.3673 7.42479 14.1412 7.39562 13.8729 7.39562C13.5492 7.39562 13.2531 7.4525 12.9848 7.56625C12.7164 7.67708 12.4846 7.83896 12.2892 8.05187C12.0967 8.26479 11.9464 8.52437 11.8385 8.83062C11.7306 9.13687 11.6767 9.4825 11.6767 9.8675C11.6767 10.2583 11.7321 10.6069 11.8429 10.9131C11.9567 11.2194 12.1098 11.479 12.3023 11.6919C12.4977 11.9019 12.7267 12.0623 12.9892 12.1731C13.2546 12.284 13.5404 12.3394 13.8467 12.3394C14.0333 12.3394 14.201 12.3292 14.3498 12.3087C14.5014 12.2854 14.64 12.2504 14.7654 12.2037C14.8937 12.1571 15.0119 12.0987 15.1198 12.0287C15.2306 11.9558 15.34 11.8698 15.4479 11.7706C15.4975 11.7269 15.5471 11.705 15.5967 11.705Z" fill="#F9FAFA"/>
</svg>
