<svg width="20" height="20" viewBox="0 0 20 20" fill="none" xmlns="http://www.w3.org/2000/svg">
<rect width="20" height="20" rx="10" fill="#2E3DA3"/>
<path d="M9.46652 11.705C9.51319 11.705 9.55402 11.724 9.58902 11.7619L9.9259 12.125C9.66923 12.4225 9.35715 12.6544 8.98965 12.8206C8.62507 12.9869 8.18319 13.07 7.66402 13.07C7.21486 13.07 6.80652 12.9927 6.43902 12.8381C6.07152 12.6806 5.75798 12.4619 5.4984 12.1819C5.23882 11.899 5.03757 11.5606 4.89465 11.1669C4.75173 10.7731 4.68027 10.34 4.68027 9.8675C4.68027 9.395 4.75465 8.96187 4.9034 8.56812C5.05215 8.17437 5.26069 7.83604 5.52902 7.55312C5.80027 7.27021 6.12402 7.05146 6.50027 6.89687C6.87652 6.73937 7.29215 6.66062 7.74715 6.66062C8.1934 6.66062 8.58715 6.73208 8.9284 6.875C9.26965 7.01792 9.57007 7.21187 9.82965 7.45687L9.54965 7.84625C9.53215 7.87542 9.50882 7.90021 9.47965 7.92062C9.4534 7.93812 9.41694 7.94687 9.37027 7.94687C9.31777 7.94687 9.25361 7.91917 9.17777 7.86375C9.10194 7.80542 9.00277 7.74125 8.88027 7.67125C8.75777 7.60125 8.60465 7.53854 8.4209 7.48312C8.23715 7.42479 8.01111 7.39562 7.74277 7.39562C7.41902 7.39562 7.12298 7.4525 6.85465 7.56625C6.58632 7.67708 6.35444 7.83896 6.15902 8.05187C5.96652 8.26479 5.81632 8.52437 5.7084 8.83062C5.60048 9.13687 5.54652 9.4825 5.54652 9.8675C5.54652 10.2583 5.60194 10.6069 5.71277 10.9131C5.82652 11.2194 5.97965 11.479 6.17215 11.6919C6.36757 11.9019 6.59652 12.0623 6.85902 12.1731C7.12444 12.284 7.41027 12.3394 7.71652 12.3394C7.90319 12.3394 8.0709 12.3292 8.21965 12.3087C8.37132 12.2854 8.50986 12.2504 8.63527 12.2037C8.76361 12.1571 8.88173 12.0987 8.98965 12.0287C9.10048 11.9558 9.20986 11.8698 9.31777 11.7706C9.36736 11.7269 9.41694 11.705 9.46652 11.705ZM14.9919 7.71062C14.9656 7.75437 14.9365 7.78792 14.9044 7.81125C14.8752 7.83167 14.8388 7.84187 14.795 7.84187C14.7454 7.84187 14.6871 7.81708 14.62 7.7675C14.5529 7.71792 14.4683 7.66396 14.3663 7.60562C14.2671 7.54437 14.146 7.48896 14.0031 7.43937C13.8631 7.38979 13.6925 7.365 13.4913 7.365C13.3017 7.365 13.134 7.39125 12.9881 7.44375C12.8452 7.49333 12.7242 7.56187 12.625 7.64937C12.5288 7.73687 12.4558 7.84042 12.4063 7.96C12.3567 8.07667 12.3319 8.20354 12.3319 8.34062C12.3319 8.51562 12.3742 8.66146 12.4588 8.77812C12.5463 8.89187 12.66 8.98958 12.8 9.07125C12.9429 9.15292 13.1033 9.22437 13.2813 9.28562C13.4621 9.34396 13.6458 9.40521 13.8325 9.46937C14.0221 9.53354 14.2058 9.60646 14.3838 9.68812C14.5646 9.76687 14.725 9.8675 14.865 9.99C15.0079 10.1125 15.1217 10.2627 15.2063 10.4406C15.2938 10.6185 15.3375 10.8373 15.3375 11.0969C15.3375 11.371 15.2908 11.6292 15.1975 11.8712C15.1042 12.1104 14.9671 12.319 14.7863 12.4969C14.6083 12.6748 14.3881 12.8148 14.1256 12.9169C13.866 13.019 13.57 13.07 13.2375 13.07C12.8292 13.07 12.4588 12.9971 12.1263 12.8512C11.7938 12.7025 11.5094 12.5027 11.2731 12.2519L11.5181 11.8494C11.5415 11.8173 11.5692 11.791 11.6013 11.7706C11.6363 11.7473 11.6742 11.7356 11.715 11.7356C11.7529 11.7356 11.7952 11.7517 11.8419 11.7837C11.8915 11.8129 11.9469 11.8508 12.0081 11.8975C12.0694 11.9442 12.1394 11.9952 12.2181 12.0506C12.2969 12.106 12.3858 12.1571 12.485 12.2037C12.5871 12.2504 12.7023 12.2898 12.8306 12.3219C12.959 12.351 13.1033 12.3656 13.2638 12.3656C13.465 12.3656 13.6444 12.3379 13.8019 12.2825C13.9594 12.2271 14.0921 12.1498 14.2 12.0506C14.3108 11.9485 14.3954 11.8275 14.4538 11.6875C14.5121 11.5475 14.5413 11.3915 14.5413 11.2194C14.5413 11.0298 14.4975 10.8752 14.41 10.7556C14.3254 10.6331 14.2131 10.531 14.0731 10.4494C13.9331 10.3677 13.7727 10.2992 13.5919 10.2437C13.411 10.1854 13.2273 10.1271 13.0406 10.0687C12.854 10.0075 12.6702 9.9375 12.4894 9.85875C12.3085 9.78 12.1481 9.67792 12.0081 9.5525C11.8681 9.42708 11.7544 9.27104 11.6669 9.08437C11.5823 8.89479 11.54 8.66146 11.54 8.38437C11.54 8.16271 11.5823 7.94833 11.6669 7.74125C11.7544 7.53417 11.8798 7.35042 12.0431 7.19C12.2094 7.02958 12.4121 6.90125 12.6513 6.805C12.8933 6.70875 13.1704 6.66062 13.4825 6.66062C13.8325 6.66062 14.1504 6.71604 14.4363 6.82687C14.725 6.93771 14.9788 7.09812 15.1975 7.30812L14.9919 7.71062Z" fill="#F9FAFA"/>
</svg>
