<svg width="20" height="20" viewBox="0 0 20 20" fill="none" xmlns="http://www.w3.org/2000/svg">
<path d="M17.5 12.297C15.2837 13.4771 12.8147 14.1204 10.293 14.1667L10 14.1696C7.37673 14.1696 4.80203 13.5227 2.5 12.297V15C2.5 15.4603 2.8731 15.8334 3.33334 15.8334H16.6667C17.1269 15.8334 17.5 15.4603 17.5 15V12.297ZM10.0081 9.16671L10.0936 9.17118C10.5138 9.21389 10.8415 9.56859 10.8415 10C10.8415 10.4315 10.5138 10.7862 10.0936 10.8289L10.0081 10.8334H10C9.53977 10.8334 9.16667 10.4603 9.16667 10C9.16667 9.5398 9.53977 9.16671 10 9.16671H10.0081ZM17.5 6.66671C17.5 6.20647 17.1269 5.83337 16.6667 5.83337H3.33334C2.8731 5.83337 2.5 6.20647 2.5 6.66671V10.376C4.75224 11.7646 7.34831 12.5029 10 12.5029L10.2625 12.5004C12.8228 12.4534 15.3221 11.7188 17.5 10.376V6.66671ZM12.5 3.33337C12.5 3.11236 12.4121 2.90046 12.2559 2.74418C12.0996 2.5879 11.8877 2.50004 11.6667 2.50004H8.33334C8.11232 2.50004 7.90042 2.5879 7.74414 2.74418C7.58786 2.90046 7.5 3.11236 7.5 3.33337V4.16671H12.5V3.33337ZM14.1667 4.16671H16.6667C18.0474 4.16671 19.1667 5.286 19.1667 6.66671V15C19.1667 16.3808 18.0474 17.5 16.6667 17.5H3.33334C1.95262 17.5 0.833336 16.3808 0.833336 15V6.66671C0.833336 5.286 1.95262 4.16671 3.33334 4.16671H5.83334V3.33337C5.83334 2.67033 6.09692 2.03464 6.56576 1.5658C7.0346 1.09695 7.67029 0.833374 8.33334 0.833374H11.6667C12.3297 0.833374 12.9654 1.09695 13.4342 1.5658C13.9031 2.03464 14.1667 2.67033 14.1667 3.33337V4.16671Z" fill="#F9FAFA"/>
</svg>
