<svg width="14" height="14" viewBox="0 0 14 14" fill="none" xmlns="http://www.w3.org/2000/svg">
<path fill-rule="evenodd" clip-rule="evenodd" d="M3.08736 3.08748C3.31516 2.85967 3.68451 2.85967 3.91232 3.08748L6.99984 6.175L10.0874 3.08748C10.3152 2.85967 10.6845 2.85967 10.9123 3.08748C11.1401 3.31529 11.1401 3.68463 10.9123 3.91244L7.82479 6.99996L10.9123 10.0875C11.1401 10.3153 11.1401 10.6846 10.9123 10.9124C10.6845 11.1402 10.3152 11.1402 10.0874 10.9124L6.99984 7.82492L3.91232 10.9124C3.68451 11.1402 3.31516 11.1402 3.08736 10.9124C2.85955 10.6846 2.85955 10.3153 3.08736 10.0875L6.17488 6.99996L3.08736 3.91244C2.85955 3.68463 2.85955 3.31529 3.08736 3.08748Z" fill="#F9FAFA"/>
</svg>
