<svg width="16" height="16" viewBox="0 0 16 16" fill="none" xmlns="http://www.w3.org/2000/svg">
<path d="M14.0001 7.99984C14.0001 4.68613 11.3138 1.99984 8.00008 1.99984C4.68637 1.99984 2.00008 4.68613 2.00008 7.99984C2.00008 11.3135 4.68637 13.9998 8.00008 13.9998C11.3138 13.9998 14.0001 11.3135 14.0001 7.99984ZM9.52873 6.19515C9.78908 5.9348 10.2111 5.9348 10.4714 6.19515C10.7318 6.4555 10.7318 6.87751 10.4714 7.13786L7.80477 9.80453C7.54442 10.0649 7.12241 10.0649 6.86206 9.80453L5.52873 8.47119L5.48283 8.42074C5.26923 8.15889 5.28464 7.77257 5.52873 7.52848C5.77282 7.28439 6.15913 7.26899 6.42098 7.48258L6.47144 7.52848L7.33341 8.39046L9.52873 6.19515ZM15.3334 7.99984C15.3334 12.0499 12.0502 15.3332 8.00008 15.3332C3.94999 15.3332 0.666748 12.0499 0.666748 7.99984C0.666748 3.94975 3.94999 0.666504 8.00008 0.666504C12.0502 0.666504 15.3334 3.94975 15.3334 7.99984Z" fill="#508B26"/>
</svg>
