<svg width="16" height="16" viewBox="0 0 16 16" fill="none" xmlns="http://www.w3.org/2000/svg">
<path d="M14.0001 7.99984C14.0001 4.68613 11.3138 1.99984 8.00008 1.99984C6.58338 1.99984 5.28142 2.4909 4.25496 3.31201L12.6876 11.7446C13.5087 10.7182 14.0001 9.41652 14.0001 7.99984ZM2.00008 7.99984C2.00008 11.3135 4.68637 13.9998 8.00008 13.9998C9.41676 13.9998 10.7184 13.5084 11.7449 12.6873L3.31226 4.25472C2.49115 5.28117 2.00008 6.58314 2.00008 7.99984ZM15.3334 7.99984C15.3334 9.95351 14.5691 11.7285 13.3236 13.0428C13.2931 13.101 13.2537 13.1557 13.2048 13.2046C13.1559 13.2535 13.101 13.2929 13.0427 13.3234C11.7284 14.5688 9.95367 15.3332 8.00008 15.3332C3.94999 15.3332 0.666748 12.0499 0.666748 7.99984C0.666748 6.04608 1.43093 4.27091 2.67651 2.95654C2.70702 2.89849 2.74652 2.8439 2.79533 2.79508C2.84418 2.74623 2.89868 2.70646 2.95679 2.67594C4.27114 1.43045 6.04641 0.666504 8.00008 0.666504C12.0502 0.666504 15.3334 3.94975 15.3334 7.99984Z" fill="#D03E3E"/>
</svg>
