<svg width="14" height="14" viewBox="0 0 14 14" fill="none" xmlns="http://www.w3.org/2000/svg">
<path fill-rule="evenodd" clip-rule="evenodd" d="M6.99967 2.3335C7.32184 2.3335 7.58301 2.59466 7.58301 2.91683V6.41683H11.083C11.4052 6.41683 11.6663 6.678 11.6663 7.00016C11.6663 7.32233 11.4052 7.5835 11.083 7.5835H7.58301V11.0835C7.58301 11.4057 7.32184 11.6668 6.99967 11.6668C6.67751 11.6668 6.41634 11.4057 6.41634 11.0835V7.5835H2.91634C2.59418 7.5835 2.33301 7.32233 2.33301 7.00016C2.33301 6.678 2.59418 6.41683 2.91634 6.41683H6.41634V2.91683C6.41634 2.59466 6.67751 2.3335 6.99967 2.3335Z" fill="#F9FAFA"/>
</svg>
