<svg width="32" height="32" viewBox="0 0 32 32" fill="none" xmlns="http://www.w3.org/2000/svg">
<rect width="32" height="32" rx="16" fill="#2E3DA3"/>
<path d="M11.1834 20.922C11.5988 20.922 11.9698 20.852 12.2964 20.712C12.6231 20.572 12.8984 20.376 13.1224 20.124C13.3511 19.872 13.5238 19.571 13.6404 19.221C13.7618 18.871 13.8224 18.486 13.8224 18.066V11.969H15.1734V18.066C15.1734 18.6447 15.0801 19.1813 14.8934 19.676C14.7114 20.1707 14.4478 20.6 14.1024 20.964C13.7618 21.3233 13.3441 21.6057 12.8494 21.811C12.3548 22.0163 11.7994 22.119 11.1834 22.119C10.5674 22.119 10.0121 22.0163 9.51745 21.811C9.02278 21.6057 8.60278 21.3233 8.25745 20.964C7.91211 20.6 7.64611 20.1707 7.45945 19.676C7.27745 19.1813 7.18645 18.6447 7.18645 18.066V11.969H8.53745V18.059C8.53745 18.479 8.59578 18.864 8.71245 19.214C8.83378 19.564 9.00645 19.865 9.23045 20.117C9.45911 20.369 9.73678 20.5673 10.0634 20.712C10.3948 20.852 10.7681 20.922 11.1834 20.922ZM24.1019 18.276L22.5269 14.195C22.4803 14.0737 22.4313 13.9337 22.3799 13.775C22.3286 13.6117 22.2796 13.439 22.2329 13.257C22.1349 13.635 22.0346 13.95 21.9319 14.202L20.3569 18.276H24.1019ZM26.9299 22H25.8799C25.7586 22 25.6606 21.9697 25.5859 21.909C25.5113 21.8483 25.4553 21.7713 25.4179 21.678L24.4799 19.256H19.9789L19.0409 21.678C19.0129 21.762 18.9593 21.8367 18.8799 21.902C18.8006 21.9673 18.7026 22 18.5859 22H17.5359L21.5469 11.969H22.9189L26.9299 22Z" fill="#F9FAFA"/>
</svg>
