<svg width="144" height="44" viewBox="0 0 144 44" fill="none" xmlns="http://www.w3.org/2000/svg">
<path d="M21.5048 11.92C21.6695 11.912 21.8346 11.9079 22 11.9079C22.1653 11.9079 22.3304 11.912 22.4952 11.92L23.0195 1.24719C22.6803 1.23053 22.3403 1.22217 22 1.22217C21.6596 1.22217 21.3197 1.23053 20.9805 1.24719L21.5048 11.92Z" fill="url(#paint0_linear_5274_1341)"/>
<path d="M19.5478 12.2103C19.8682 12.1301 20.1924 12.0656 20.5191 12.0171L18.9512 1.44706C18.2785 1.54685 17.6111 1.6796 16.9514 1.84485L19.5478 12.2103Z" fill="url(#paint1_linear_5274_1341)"/>
<path d="M23.4808 12.0171C23.8075 12.0656 24.1317 12.1301 24.4521 12.2103L27.0485 1.84485C26.3888 1.67961 25.7214 1.54685 25.0487 1.44706L23.4808 12.0171Z" fill="url(#paint2_linear_5274_1341)"/>
<path d="M18.1379 12.6761C18.2906 12.6128 18.4447 12.5534 18.6001 12.4978L15.0001 2.43675C14.6804 2.55118 14.3631 2.67354 14.0486 2.80378C13.7342 2.93403 13.4233 3.07184 13.1163 3.21705L17.6851 12.8768C17.8341 12.8063 17.9851 12.7394 18.1379 12.6761Z" fill="url(#paint3_linear_5274_1341)"/>
<path d="M25.3998 12.4978C25.5552 12.5534 25.7093 12.6128 25.862 12.6761C26.0148 12.7394 26.1658 12.8063 26.3149 12.8768L30.8836 3.21706C30.5766 3.07184 30.2657 2.93403 29.9513 2.80378C29.6369 2.67354 29.3196 2.55118 28.9998 2.43675L25.3998 12.4978Z" fill="url(#paint4_linear_5274_1341)"/>
<path d="M15.9881 13.8939C16.2534 13.6972 16.5283 13.5135 16.8116 13.3437L11.318 4.17825C10.7347 4.52789 10.1689 4.90595 9.62263 5.31107L15.9881 13.8939Z" fill="url(#paint5_linear_5274_1341)"/>
<path d="M27.1883 13.3437C27.4716 13.5135 27.7465 13.6972 28.0118 13.8939L34.3773 5.31108C33.831 4.90595 33.2652 4.52789 32.6819 4.17826L27.1883 13.3437Z" fill="url(#paint6_linear_5274_1341)"/>
<path d="M14.8638 14.8638C14.9807 14.7469 15.1003 14.633 15.2225 14.5222L8.04642 6.60463C7.79478 6.83272 7.5485 7.06719 7.30784 7.30784C7.06719 7.5485 6.83272 7.79478 6.60463 8.04642L14.5222 15.2225C14.633 15.1003 14.7469 14.9807 14.8638 14.8638Z" fill="url(#paint7_linear_5274_1341)"/>
<path d="M28.7774 14.5222C28.8996 14.633 29.0192 14.7469 29.1361 14.8638C29.253 14.9807 29.3669 15.1003 29.4777 15.2226L37.3953 8.04642C37.1672 7.79478 36.9327 7.5485 36.6921 7.30784C36.4514 7.06719 36.2051 6.83272 35.9535 6.60463L28.7774 14.5222Z" fill="url(#paint8_linear_5274_1341)"/>
<path d="M13.3437 16.8116C13.5135 16.5283 13.6972 16.2534 13.8939 15.9881L5.31108 9.62263C4.90595 10.1689 4.52789 10.7347 4.17826 11.318L13.3437 16.8116Z" fill="url(#paint9_linear_5274_1341)"/>
<path d="M30.106 15.9881C30.3028 16.2534 30.4864 16.5283 30.6562 16.8116L39.8217 11.318C39.472 10.7347 39.094 10.1689 38.6888 9.62263L30.106 15.9881Z" fill="url(#paint10_linear_5274_1341)"/>
<path d="M12.6761 18.1379C12.7394 17.9851 12.8063 17.8341 12.8768 17.6851L3.21706 13.1163C3.07184 13.4233 2.93403 13.7342 2.80378 14.0486C2.67354 14.3631 2.55118 14.6804 2.43675 15.0001L12.4978 18.6001C12.5534 18.4447 12.6128 18.2906 12.6761 18.1379Z" fill="url(#paint11_linear_5274_1341)"/>
<path d="M31.1231 17.6851C31.1936 17.8341 31.2606 17.9851 31.3238 18.1379C31.3871 18.2906 31.4465 18.4447 31.5021 18.6001L41.5632 15.0001C41.4487 14.6804 41.3264 14.3631 41.1961 14.0487C41.0659 13.7342 40.9281 13.4233 40.7828 13.1163L31.1231 17.6851Z" fill="url(#paint12_linear_5274_1341)"/>
<path d="M12.0171 20.5191C12.0656 20.1924 12.1301 19.8682 12.2103 19.5478L1.84485 16.9514C1.67961 17.6111 1.54685 18.2785 1.44706 18.9512L12.0171 20.5191Z" fill="url(#paint13_linear_5274_1341)"/>
<path d="M31.7896 19.5478C31.8698 19.8682 31.9343 20.1924 31.9828 20.5191L42.5528 18.9512C42.4531 18.2785 42.3203 17.6111 42.1551 16.9514L31.7896 19.5478Z" fill="url(#paint14_linear_5274_1341)"/>
<path d="M11.9079 22C11.9079 21.8346 11.912 21.6695 11.92 21.5048L1.24719 20.9805C1.23053 21.3197 1.22217 21.6596 1.22217 22C1.22217 24.7285 1.7596 27.4304 2.80378 29.9512C3.84796 32.4721 5.37845 34.7627 7.30784 36.6921C9.23722 38.6214 11.5278 40.1519 14.0486 41.1961C16.5695 42.2403 19.2714 42.7777 22 42.7777C24.7285 42.7777 27.4304 42.2403 29.9513 41.1961C32.4721 40.1519 34.7627 38.6214 36.6921 36.6921C38.6214 34.7627 40.1519 32.4721 41.1961 29.9512C42.2403 27.4304 42.7777 24.7285 42.7777 22C42.7777 21.6596 42.7694 21.3197 42.7527 20.9805L32.0799 21.5048C32.0879 21.6695 32.092 21.8347 32.092 22C32.092 23.3253 31.831 24.6376 31.3238 25.862C30.8166 27.0864 30.0733 28.199 29.1361 29.1361C28.199 30.0733 27.0864 30.8166 25.862 31.3238C24.6376 31.831 23.3253 32.092 22 32.092C20.6747 32.092 19.3623 31.831 18.1379 31.3238C16.9135 30.8166 15.8009 30.0733 14.8638 29.1361C13.9266 28.199 13.1833 27.0864 12.6761 25.862C12.1689 24.6376 11.9079 23.3253 11.9079 22Z" fill="url(#paint15_linear_5274_1341)"/>
<path d="M22.0012 11.9076C21.8359 11.9076 21.6708 11.9117 21.506 11.9198L21.3069 7.86673C21.7673 7.66819 22.2392 7.49144 22.7215 7.33787L22.4964 11.9198C22.3316 11.9117 22.1665 11.9076 22.0012 11.9076Z" fill="#5165E1"/>
<path d="M24.2351 6.94004L23.482 12.0169C23.8088 12.0654 24.133 12.1298 24.4534 12.2101L25.8353 6.69334C25.2931 6.74792 24.7592 6.83066 24.2351 6.94004Z" fill="#5165E1"/>
<path d="M27.5057 6.61572L25.4011 12.4976C25.5564 12.5532 25.7106 12.6126 25.8633 12.6759C26.016 12.7391 26.167 12.8061 26.3161 12.8766L29.2264 6.72326C28.6617 6.65622 28.0875 6.61983 27.5057 6.61572Z" fill="#5165E1"/>
<path d="M30.9717 7.03336L27.1896 13.3435C27.4729 13.5133 27.7477 13.6969 28.0131 13.8937L32.7113 7.5588C32.1463 7.3507 31.5657 7.17478 30.9717 7.03336Z" fill="#5165E1"/>
<path d="M34.4127 8.30574L28.7786 14.522C28.9009 14.6328 29.0205 14.7467 29.1374 14.8636C29.2543 14.9804 29.3681 15.1001 29.479 15.2223L36.042 9.27385C35.521 8.9191 34.9769 8.59548 34.4127 8.30574Z" fill="#5165E1"/>
<path d="M37.5653 10.4567L30.1072 15.9879C30.304 16.2532 30.4877 16.528 30.6575 16.8114L38.9488 11.8417C38.5173 11.3513 38.0552 10.8886 37.5653 10.4567Z" fill="#5165E1"/>
<path d="M40.1603 13.4111L31.1243 17.6848C31.1949 17.8339 31.2618 17.9849 31.325 18.1376C31.3883 18.2904 31.4478 18.4445 31.5034 18.5998L41.1694 15.1413C40.87 14.5412 40.5326 13.9634 40.1603 13.4111Z" fill="#5165E1"/>
<path d="M41.9493 17.003L31.7908 19.5475C31.8711 19.868 31.9356 20.1922 31.9841 20.5189L42.4792 18.9621C42.345 18.2923 42.1674 17.6383 41.9493 17.003Z" fill="#5165E1"/>
<path d="M42.7458 20.9806L32.0811 21.5045C32.0892 21.6693 32.0933 21.8344 32.0933 21.9997C32.0933 23.325 31.8322 24.6374 31.325 25.8618C30.8179 27.0862 30.0745 28.1988 29.1374 29.1359C28.2002 30.073 27.0877 30.8164 25.8633 31.3236C24.6388 31.8308 23.3265 32.0918 22.0012 32.0918C20.6759 32.0918 19.3636 31.8308 18.1391 31.3236C16.9147 30.8164 15.8021 30.073 14.865 29.1359C13.9279 28.1988 13.1845 27.0862 12.6774 25.8618C12.4767 25.3774 12.3146 24.8793 12.1919 24.372C13.3327 31.7422 19.7048 37.3841 27.3945 37.3841C35.8911 37.3841 42.779 30.4963 42.779 21.9997C42.779 21.6573 42.7678 21.3175 42.7458 20.9806Z" fill="#5165E1"/>
<path d="M12.1919 19.6276C12.1984 19.6009 12.2049 19.5742 12.2116 19.5475L12.2048 19.5458C12.2004 19.5731 12.1961 19.6003 12.1919 19.6276Z" fill="#5165E1"/>
<path d="M12.3955 18.5628L12.4991 18.5998C12.5547 18.4445 12.6141 18.2904 12.6774 18.1376C12.7406 17.9849 12.8076 17.8339 12.8781 17.6848L12.6547 17.5791C12.5578 17.9027 12.4713 18.2306 12.3955 18.5628Z" fill="#5165E1"/>
<path d="M12.9859 16.5961L13.345 16.8114C13.5148 16.528 13.6984 16.2532 13.8952 15.9879L13.3932 15.6155C13.2465 15.9366 13.1106 16.2637 12.9859 16.5961Z" fill="#5165E1"/>
<path d="M13.8813 14.6402L14.5235 15.2223C14.6343 15.1001 14.7482 14.9804 14.865 14.8635C14.9819 14.7467 15.1016 14.6328 15.2238 14.522L14.4554 13.6742C14.2527 13.9885 14.0612 14.3107 13.8813 14.6402Z" fill="#5165E1"/>
<path d="M15.1209 12.7227L15.9894 13.8937C16.2547 13.6969 16.5295 13.5133 16.8129 13.3435L15.8835 11.7929C15.6175 12.0926 15.3631 12.4027 15.1209 12.7227Z" fill="#5165E1"/>
<path d="M16.7485 10.8938L17.6863 12.8766C17.8354 12.8061 17.9864 12.7391 18.1391 12.6759C18.2919 12.6126 18.446 12.5532 18.6013 12.4976L17.7208 10.0367C17.3847 10.3088 17.0603 10.5948 16.7485 10.8938Z" fill="#5165E1"/>
<path d="M18.8039 9.23534L19.549 12.2101C19.8695 12.1298 20.1936 12.0654 20.5204 12.0169L19.9996 8.5059C19.5893 8.73122 19.1904 8.97474 18.8039 9.23534Z" fill="#5165E1"/>
<path d="M69.8 8.54V23H67.1V16.68H60.31V23H57.61V8.54H60.31V14.76H67.1V8.54H69.8ZM78.9277 16.69C78.9277 16.37 78.881 16.07 78.7877 15.79C78.701 15.5033 78.5677 15.2533 78.3877 15.04C78.2077 14.8267 77.9777 14.66 77.6977 14.54C77.4243 14.4133 77.1043 14.35 76.7377 14.35C76.0243 14.35 75.461 14.5533 75.0477 14.96C74.641 15.3667 74.381 15.9433 74.2677 16.69H78.9277ZM74.2177 18.18C74.2577 18.7067 74.351 19.1633 74.4977 19.55C74.6443 19.93 74.8377 20.2467 75.0777 20.5C75.3177 20.7467 75.601 20.9333 75.9277 21.06C76.261 21.18 76.6277 21.24 77.0277 21.24C77.4277 21.24 77.771 21.1933 78.0577 21.1C78.351 21.0067 78.6043 20.9033 78.8177 20.79C79.0377 20.6767 79.2277 20.5733 79.3877 20.48C79.5543 20.3867 79.7143 20.34 79.8677 20.34C80.0743 20.34 80.2277 20.4167 80.3277 20.57L81.0377 21.47C80.7643 21.79 80.4577 22.06 80.1177 22.28C79.7777 22.4933 79.421 22.6667 79.0477 22.8C78.681 22.9267 78.3043 23.0167 77.9177 23.07C77.5377 23.1233 77.1677 23.15 76.8077 23.15C76.0943 23.15 75.431 23.0333 74.8177 22.8C74.2043 22.56 73.671 22.21 73.2177 21.75C72.7643 21.2833 72.4077 20.71 72.1477 20.03C71.8877 19.3433 71.7577 18.55 71.7577 17.65C71.7577 16.95 71.871 16.2933 72.0977 15.68C72.3243 15.06 72.6477 14.5233 73.0677 14.07C73.4943 13.61 74.011 13.2467 74.6177 12.98C75.231 12.7133 75.921 12.58 76.6877 12.58C77.3343 12.58 77.931 12.6833 78.4777 12.89C79.0243 13.0967 79.4943 13.4 79.8877 13.8C80.281 14.1933 80.5877 14.68 80.8077 15.26C81.0343 15.8333 81.1477 16.49 81.1477 17.23C81.1477 17.6033 81.1077 17.8567 81.0277 17.99C80.9477 18.1167 80.7943 18.18 80.5677 18.18H74.2177ZM85.5013 8.14V23H83.0312V8.14H85.5013ZM90.4322 20.34C90.7122 20.68 91.0155 20.92 91.3422 21.06C91.6755 21.2 92.0355 21.27 92.4222 21.27C92.7955 21.27 93.1322 21.2 93.4322 21.06C93.7322 20.92 93.9855 20.7067 94.1922 20.42C94.4055 20.1333 94.5689 19.7733 94.6822 19.34C94.7955 18.9 94.8522 18.3833 94.8522 17.79C94.8522 17.19 94.8022 16.6833 94.7022 16.27C94.6089 15.85 94.4722 15.51 94.2922 15.25C94.1122 14.99 93.8922 14.8 93.6322 14.68C93.3789 14.56 93.0889 14.5 92.7622 14.5C92.2489 14.5 91.8122 14.61 91.4522 14.83C91.0922 15.0433 90.7522 15.3467 90.4322 15.74V20.34ZM90.3022 14.14C90.7222 13.6667 91.1989 13.2833 91.7322 12.99C92.2655 12.6967 92.8922 12.55 93.6122 12.55C94.1722 12.55 94.6822 12.6667 95.1422 12.9C95.6089 13.1333 96.0089 13.4733 96.3422 13.92C96.6822 14.36 96.9422 14.9067 97.1222 15.56C97.3089 16.2067 97.4022 16.95 97.4022 17.79C97.4022 18.5567 97.2989 19.2667 97.0922 19.92C96.8855 20.5733 96.5889 21.14 96.2022 21.62C95.8222 22.1 95.3589 22.4767 94.8122 22.75C94.2722 23.0167 93.6655 23.15 92.9922 23.15C92.4189 23.15 91.9289 23.0633 91.5222 22.89C91.1155 22.71 90.7522 22.4633 90.4322 22.15V26.35H87.9622V12.74H89.4722C89.7922 12.74 90.0022 12.89 90.1022 13.19L90.3022 14.14ZM112.266 15.77C112.266 16.83 112.09 17.8033 111.736 18.69C111.383 19.5767 110.886 20.34 110.246 20.98C109.606 21.62 108.836 22.1167 107.936 22.47C107.036 22.8233 106.036 23 104.936 23H99.4264V8.54H104.936C106.036 8.54 107.036 8.72 107.936 9.08C108.836 9.43333 109.606 9.93 110.246 10.57C110.886 11.2033 111.383 11.9633 111.736 12.85C112.09 13.7367 112.266 14.71 112.266 15.77ZM109.506 15.77C109.506 14.9767 109.4 14.2667 109.186 13.64C108.98 13.0067 108.676 12.4733 108.276 12.04C107.883 11.6 107.403 11.2633 106.836 11.03C106.276 10.7967 105.643 10.68 104.936 10.68H102.126V20.86H104.936C105.643 20.86 106.276 20.7433 106.836 20.51C107.403 20.2767 107.883 19.9433 108.276 19.51C108.676 19.07 108.98 18.5367 109.186 17.91C109.4 17.2767 109.506 16.5633 109.506 15.77ZM120.725 16.69C120.725 16.37 120.678 16.07 120.585 15.79C120.498 15.5033 120.365 15.2533 120.185 15.04C120.005 14.8267 119.775 14.66 119.495 14.54C119.221 14.4133 118.901 14.35 118.535 14.35C117.821 14.35 117.258 14.5533 116.845 14.96C116.438 15.3667 116.178 15.9433 116.065 16.69H120.725ZM116.015 18.18C116.055 18.7067 116.148 19.1633 116.295 19.55C116.441 19.93 116.635 20.2467 116.875 20.5C117.115 20.7467 117.398 20.9333 117.725 21.06C118.058 21.18 118.425 21.24 118.825 21.24C119.225 21.24 119.568 21.1933 119.855 21.1C120.148 21.0067 120.401 20.9033 120.615 20.79C120.835 20.6767 121.025 20.5733 121.185 20.48C121.351 20.3867 121.511 20.34 121.665 20.34C121.871 20.34 122.025 20.4167 122.125 20.57L122.835 21.47C122.561 21.79 122.255 22.06 121.915 22.28C121.575 22.4933 121.218 22.6667 120.845 22.8C120.478 22.9267 120.101 23.0167 119.715 23.07C119.335 23.1233 118.965 23.15 118.605 23.15C117.891 23.15 117.228 23.0333 116.615 22.8C116.001 22.56 115.468 22.21 115.015 21.75C114.561 21.2833 114.205 20.71 113.945 20.03C113.685 19.3433 113.555 18.55 113.555 17.65C113.555 16.95 113.668 16.2933 113.895 15.68C114.121 15.06 114.445 14.5233 114.865 14.07C115.291 13.61 115.808 13.2467 116.415 12.98C117.028 12.7133 117.718 12.58 118.485 12.58C119.131 12.58 119.728 12.6833 120.275 12.89C120.821 13.0967 121.291 13.4 121.685 13.8C122.078 14.1933 122.385 14.68 122.605 15.26C122.831 15.8333 122.945 16.49 122.945 17.23C122.945 17.6033 122.905 17.8567 122.825 17.99C122.745 18.1167 122.591 18.18 122.365 18.18H116.015ZM131.058 14.74C130.991 14.8467 130.921 14.9233 130.848 14.97C130.775 15.01 130.681 15.03 130.568 15.03C130.448 15.03 130.318 14.9967 130.178 14.93C130.045 14.8633 129.888 14.79 129.708 14.71C129.528 14.6233 129.321 14.5467 129.088 14.48C128.861 14.4133 128.591 14.38 128.278 14.38C127.791 14.38 127.408 14.4833 127.128 14.69C126.855 14.8967 126.718 15.1667 126.718 15.5C126.718 15.72 126.788 15.9067 126.928 16.06C127.075 16.2067 127.265 16.3367 127.498 16.45C127.738 16.5633 128.008 16.6667 128.308 16.76C128.608 16.8467 128.911 16.9433 129.218 17.05C129.531 17.1567 129.838 17.28 130.138 17.42C130.438 17.5533 130.705 17.7267 130.938 17.94C131.178 18.1467 131.368 18.3967 131.508 18.69C131.655 18.9833 131.728 19.3367 131.728 19.75C131.728 20.2433 131.638 20.7 131.458 21.12C131.285 21.5333 131.025 21.8933 130.678 22.2C130.331 22.5 129.901 22.7367 129.388 22.91C128.881 23.0767 128.295 23.16 127.628 23.16C127.275 23.16 126.928 23.1267 126.588 23.06C126.255 23 125.931 22.9133 125.618 22.8C125.311 22.6867 125.025 22.5533 124.758 22.4C124.498 22.2467 124.268 22.08 124.068 21.9L124.638 20.96C124.711 20.8467 124.798 20.76 124.898 20.7C124.998 20.64 125.125 20.61 125.278 20.61C125.431 20.61 125.575 20.6533 125.708 20.74C125.848 20.8267 126.008 20.92 126.188 21.02C126.368 21.12 126.578 21.2133 126.818 21.3C127.065 21.3867 127.375 21.43 127.748 21.43C128.041 21.43 128.291 21.3967 128.498 21.33C128.711 21.2567 128.885 21.1633 129.018 21.05C129.158 20.9367 129.258 20.8067 129.318 20.66C129.385 20.5067 129.418 20.35 129.418 20.19C129.418 19.95 129.345 19.7533 129.198 19.6C129.058 19.4467 128.868 19.3133 128.628 19.2C128.395 19.0867 128.125 18.9867 127.818 18.9C127.518 18.8067 127.208 18.7067 126.888 18.6C126.575 18.4933 126.265 18.37 125.958 18.23C125.658 18.0833 125.388 17.9 125.148 17.68C124.915 17.46 124.725 17.19 124.578 16.87C124.438 16.55 124.368 16.1633 124.368 15.71C124.368 15.29 124.451 14.89 124.618 14.51C124.785 14.13 125.028 13.8 125.348 13.52C125.675 13.2333 126.078 13.0067 126.558 12.84C127.045 12.6667 127.605 12.58 128.238 12.58C128.945 12.58 129.588 12.6967 130.168 12.93C130.748 13.1633 131.231 13.47 131.618 13.85L131.058 14.74ZM136.057 8.14V16.65H136.517C136.684 16.65 136.814 16.63 136.907 16.59C137.007 16.5433 137.107 16.4533 137.207 16.32L139.757 13.17C139.864 13.03 139.981 12.9233 140.107 12.85C140.241 12.7767 140.411 12.74 140.617 12.74H142.877L139.687 16.55C139.461 16.85 139.214 17.08 138.947 17.24C139.087 17.34 139.211 17.4567 139.317 17.59C139.431 17.7233 139.537 17.8667 139.637 18.02L143.057 23H140.827C140.634 23 140.467 22.97 140.327 22.91C140.187 22.8433 140.071 22.7267 139.977 22.56L137.357 18.67C137.264 18.5167 137.167 18.4167 137.067 18.37C136.967 18.3233 136.817 18.3 136.617 18.3H136.057V23H133.587V8.14H136.057Z" fill="#F9FAFA"/>
<path d="M62.3509 33.875H60.1709V40H58.8259V33.875H56.6459V32.77H62.3509V33.875ZM65.247 33.84V35.845H67.777V36.88H65.247V38.925H68.457V40H63.897V32.77H68.457V33.84H65.247ZM68.352 30.695L66.732 32.125C66.6653 32.185 66.602 32.2217 66.542 32.235C66.482 32.2483 66.4053 32.255 66.312 32.255H65.417L66.462 30.9C66.4953 30.8533 66.5287 30.8167 66.562 30.79C66.5953 30.76 66.632 30.7383 66.672 30.725C66.712 30.7117 66.7553 30.7033 66.802 30.7C66.852 30.6967 66.9103 30.695 66.977 30.695H68.352ZM75.0577 38.295C75.131 38.295 75.196 38.3233 75.2527 38.38L75.7827 38.955C75.4894 39.3183 75.1277 39.5967 74.6977 39.79C74.271 39.9833 73.7577 40.08 73.1577 40.08C72.621 40.08 72.1377 39.9883 71.7077 39.805C71.281 39.6217 70.916 39.3667 70.6127 39.04C70.3094 38.7133 70.076 38.3233 69.9127 37.87C69.7527 37.4167 69.6727 36.9217 69.6727 36.385C69.6727 35.8417 69.7594 35.345 69.9327 34.895C70.106 34.4417 70.3494 34.0517 70.6627 33.725C70.9794 33.3983 71.356 33.145 71.7927 32.965C72.2294 32.7817 72.7127 32.69 73.2427 32.69C73.7694 32.69 74.236 32.7767 74.6427 32.95C75.0527 33.1233 75.401 33.35 75.6877 33.63L75.2377 34.255C75.211 34.295 75.176 34.33 75.1327 34.36C75.0927 34.39 75.036 34.405 74.9627 34.405C74.9127 34.405 74.861 34.3917 74.8077 34.365C74.7544 34.335 74.696 34.3 74.6327 34.26C74.5694 34.2167 74.496 34.17 74.4127 34.12C74.3294 34.07 74.2327 34.025 74.1227 33.985C74.0127 33.9417 73.8844 33.9067 73.7377 33.88C73.5944 33.85 73.4277 33.835 73.2377 33.835C72.9144 33.835 72.6177 33.8933 72.3477 34.01C72.081 34.1233 71.851 34.29 71.6577 34.51C71.4644 34.7267 71.3144 34.9933 71.2077 35.31C71.101 35.6233 71.0477 35.9817 71.0477 36.385C71.0477 36.7917 71.1044 37.1533 71.2177 37.47C71.3344 37.7867 71.491 38.0533 71.6877 38.27C71.8844 38.4867 72.116 38.6533 72.3827 38.77C72.6494 38.8833 72.936 38.94 73.2427 38.94C73.426 38.94 73.591 38.93 73.7377 38.91C73.8877 38.89 74.0244 38.8583 74.1477 38.815C74.2744 38.7717 74.3927 38.7167 74.5027 38.65C74.616 38.58 74.7277 38.495 74.8377 38.395C74.871 38.365 74.906 38.3417 74.9427 38.325C74.9794 38.305 75.0177 38.295 75.0577 38.295ZM83.399 32.77V40H82.709C82.6024 40 82.5124 39.9833 82.439 39.95C82.369 39.9133 82.3007 39.8533 82.234 39.77L78.459 34.95C78.479 35.17 78.489 35.3733 78.489 35.56V40H77.304V32.77H78.009C78.0657 32.77 78.114 32.7733 78.154 32.78C78.1974 32.7833 78.234 32.7933 78.264 32.81C78.2974 32.8233 78.329 32.845 78.359 32.875C78.389 32.9017 78.4224 32.9383 78.459 32.985L82.249 37.825C82.239 37.7083 82.2307 37.5933 82.224 37.48C82.2174 37.3667 82.214 37.2617 82.214 37.165V32.77H83.399ZM86.9591 40H85.6091V32.77H86.9591V40ZM94.1429 38.295C94.2162 38.295 94.2812 38.3233 94.3379 38.38L94.8679 38.955C94.5745 39.3183 94.2129 39.5967 93.7829 39.79C93.3562 39.9833 92.8429 40.08 92.2429 40.08C91.7062 40.08 91.2229 39.9883 90.7929 39.805C90.3662 39.6217 90.0012 39.3667 89.6979 39.04C89.3945 38.7133 89.1612 38.3233 88.9979 37.87C88.8379 37.4167 88.7579 36.9217 88.7579 36.385C88.7579 35.8417 88.8445 35.345 89.0179 34.895C89.1912 34.4417 89.4345 34.0517 89.7479 33.725C90.0645 33.3983 90.4412 33.145 90.8779 32.965C91.3145 32.7817 91.7979 32.69 92.3279 32.69C92.8545 32.69 93.3212 32.7767 93.7279 32.95C94.1379 33.1233 94.4862 33.35 94.7729 33.63L94.3229 34.255C94.2962 34.295 94.2612 34.33 94.2179 34.36C94.1779 34.39 94.1212 34.405 94.0479 34.405C93.9979 34.405 93.9462 34.3917 93.8929 34.365C93.8395 34.335 93.7812 34.3 93.7179 34.26C93.6545 34.2167 93.5812 34.17 93.4979 34.12C93.4145 34.07 93.3179 34.025 93.2079 33.985C93.0979 33.9417 92.9695 33.9067 92.8229 33.88C92.6795 33.85 92.5129 33.835 92.3229 33.835C91.9995 33.835 91.7029 33.8933 91.4329 34.01C91.1662 34.1233 90.9362 34.29 90.7429 34.51C90.5495 34.7267 90.3995 34.9933 90.2929 35.31C90.1862 35.6233 90.1329 35.9817 90.1329 36.385C90.1329 36.7917 90.1895 37.1533 90.3029 37.47C90.4195 37.7867 90.5762 38.0533 90.7729 38.27C90.9695 38.4867 91.2012 38.6533 91.4679 38.77C91.7345 38.8833 92.0212 38.94 92.3279 38.94C92.5112 38.94 92.6762 38.93 92.8229 38.91C92.9729 38.89 93.1095 38.8583 93.2329 38.815C93.3595 38.7717 93.4779 38.7167 93.5879 38.65C93.7012 38.58 93.8129 38.495 93.9229 38.395C93.9562 38.365 93.9912 38.3417 94.0279 38.325C94.0645 38.305 94.1029 38.295 94.1429 38.295ZM103.128 36.385C103.128 36.915 103.04 37.4067 102.863 37.86C102.69 38.31 102.443 38.7 102.123 39.03C101.803 39.36 101.418 39.6183 100.968 39.805C100.518 39.9883 100.018 40.08 99.4679 40.08C98.9213 40.08 98.4229 39.9883 97.9729 39.805C97.5229 39.6183 97.1363 39.36 96.8129 39.03C96.4929 38.7 96.2446 38.31 96.0679 37.86C95.8913 37.4067 95.8029 36.915 95.8029 36.385C95.8029 35.855 95.8913 35.365 96.0679 34.915C96.2446 34.4617 96.4929 34.07 96.8129 33.74C97.1363 33.41 97.5229 33.1533 97.9729 32.97C98.4229 32.7833 98.9213 32.69 99.4679 32.69C99.8346 32.69 100.18 32.7333 100.503 32.82C100.826 32.9033 101.123 33.0233 101.393 33.18C101.663 33.3333 101.905 33.5217 102.118 33.745C102.335 33.965 102.518 34.2117 102.668 34.485C102.818 34.7583 102.931 35.055 103.008 35.375C103.088 35.695 103.128 36.0317 103.128 36.385ZM101.753 36.385C101.753 35.9883 101.7 35.6333 101.593 35.32C101.486 35.0033 101.335 34.735 101.138 34.515C100.941 34.295 100.701 34.1267 100.418 34.01C100.138 33.8933 99.8213 33.835 99.4679 33.835C99.1146 33.835 98.7963 33.8933 98.5129 34.01C98.2329 34.1267 97.9929 34.295 97.7929 34.515C97.5963 34.735 97.4446 35.0033 97.3379 35.32C97.2313 35.6333 97.1779 35.9883 97.1779 36.385C97.1779 36.7817 97.2313 37.1383 97.3379 37.455C97.4446 37.7683 97.5963 38.035 97.7929 38.255C97.9929 38.4717 98.2329 38.6383 98.5129 38.755C98.7963 38.8717 99.1146 38.93 99.4679 38.93C99.8213 38.93 100.138 38.8717 100.418 38.755C100.701 38.6383 100.941 38.4717 101.138 38.255C101.335 38.035 101.486 37.7683 101.593 37.455C101.7 37.1383 101.753 36.7817 101.753 36.385Z" fill="#8996EB"/>
<defs>
<linearGradient id="paint0_linear_5274_1341" x1="-4.80339" y1="-3.55673" x2="40.3883" y2="42.7777" gradientUnits="userSpaceOnUse">
<stop offset="0.0363151" stop-color="#3B53F1"/>
<stop offset="0.524591" stop-color="#6D80FD"/>
<stop offset="1" stop-color="#C9D0FE"/>
</linearGradient>
<linearGradient id="paint1_linear_5274_1341" x1="-4.80339" y1="-3.55673" x2="40.3883" y2="42.7777" gradientUnits="userSpaceOnUse">
<stop offset="0.0363151" stop-color="#3B53F1"/>
<stop offset="0.524591" stop-color="#6D80FD"/>
<stop offset="1" stop-color="#C9D0FE"/>
</linearGradient>
<linearGradient id="paint2_linear_5274_1341" x1="-4.80339" y1="-3.55673" x2="40.3883" y2="42.7777" gradientUnits="userSpaceOnUse">
<stop offset="0.0363151" stop-color="#3B53F1"/>
<stop offset="0.524591" stop-color="#6D80FD"/>
<stop offset="1" stop-color="#C9D0FE"/>
</linearGradient>
<linearGradient id="paint3_linear_5274_1341" x1="-4.80339" y1="-3.55673" x2="40.3883" y2="42.7777" gradientUnits="userSpaceOnUse">
<stop offset="0.0363151" stop-color="#3B53F1"/>
<stop offset="0.524591" stop-color="#6D80FD"/>
<stop offset="1" stop-color="#C9D0FE"/>
</linearGradient>
<linearGradient id="paint4_linear_5274_1341" x1="-4.80339" y1="-3.55673" x2="40.3883" y2="42.7777" gradientUnits="userSpaceOnUse">
<stop offset="0.0363151" stop-color="#3B53F1"/>
<stop offset="0.524591" stop-color="#6D80FD"/>
<stop offset="1" stop-color="#C9D0FE"/>
</linearGradient>
<linearGradient id="paint5_linear_5274_1341" x1="-4.80339" y1="-3.55673" x2="40.3883" y2="42.7777" gradientUnits="userSpaceOnUse">
<stop offset="0.0363151" stop-color="#3B53F1"/>
<stop offset="0.524591" stop-color="#6D80FD"/>
<stop offset="1" stop-color="#C9D0FE"/>
</linearGradient>
<linearGradient id="paint6_linear_5274_1341" x1="-4.80339" y1="-3.55673" x2="40.3883" y2="42.7777" gradientUnits="userSpaceOnUse">
<stop offset="0.0363151" stop-color="#3B53F1"/>
<stop offset="0.524591" stop-color="#6D80FD"/>
<stop offset="1" stop-color="#C9D0FE"/>
</linearGradient>
<linearGradient id="paint7_linear_5274_1341" x1="-4.80339" y1="-3.55673" x2="40.3883" y2="42.7777" gradientUnits="userSpaceOnUse">
<stop offset="0.0363151" stop-color="#3B53F1"/>
<stop offset="0.524591" stop-color="#6D80FD"/>
<stop offset="1" stop-color="#C9D0FE"/>
</linearGradient>
<linearGradient id="paint8_linear_5274_1341" x1="-4.80339" y1="-3.55673" x2="40.3883" y2="42.7777" gradientUnits="userSpaceOnUse">
<stop offset="0.0363151" stop-color="#3B53F1"/>
<stop offset="0.524591" stop-color="#6D80FD"/>
<stop offset="1" stop-color="#C9D0FE"/>
</linearGradient>
<linearGradient id="paint9_linear_5274_1341" x1="-4.80339" y1="-3.55673" x2="40.3883" y2="42.7777" gradientUnits="userSpaceOnUse">
<stop offset="0.0363151" stop-color="#3B53F1"/>
<stop offset="0.524591" stop-color="#6D80FD"/>
<stop offset="1" stop-color="#C9D0FE"/>
</linearGradient>
<linearGradient id="paint10_linear_5274_1341" x1="-4.80339" y1="-3.55673" x2="40.3883" y2="42.7777" gradientUnits="userSpaceOnUse">
<stop offset="0.0363151" stop-color="#3B53F1"/>
<stop offset="0.524591" stop-color="#6D80FD"/>
<stop offset="1" stop-color="#C9D0FE"/>
</linearGradient>
<linearGradient id="paint11_linear_5274_1341" x1="-4.80339" y1="-3.55673" x2="40.3883" y2="42.7777" gradientUnits="userSpaceOnUse">
<stop offset="0.0363151" stop-color="#3B53F1"/>
<stop offset="0.524591" stop-color="#6D80FD"/>
<stop offset="1" stop-color="#C9D0FE"/>
</linearGradient>
<linearGradient id="paint12_linear_5274_1341" x1="-4.80339" y1="-3.55673" x2="40.3883" y2="42.7777" gradientUnits="userSpaceOnUse">
<stop offset="0.0363151" stop-color="#3B53F1"/>
<stop offset="0.524591" stop-color="#6D80FD"/>
<stop offset="1" stop-color="#C9D0FE"/>
</linearGradient>
<linearGradient id="paint13_linear_5274_1341" x1="-4.80339" y1="-3.55673" x2="40.3883" y2="42.7777" gradientUnits="userSpaceOnUse">
<stop offset="0.0363151" stop-color="#3B53F1"/>
<stop offset="0.524591" stop-color="#6D80FD"/>
<stop offset="1" stop-color="#C9D0FE"/>
</linearGradient>
<linearGradient id="paint14_linear_5274_1341" x1="-4.80339" y1="-3.55673" x2="40.3883" y2="42.7777" gradientUnits="userSpaceOnUse">
<stop offset="0.0363151" stop-color="#3B53F1"/>
<stop offset="0.524591" stop-color="#6D80FD"/>
<stop offset="1" stop-color="#C9D0FE"/>
</linearGradient>
<linearGradient id="paint15_linear_5274_1341" x1="-4.80339" y1="-3.55673" x2="40.3883" y2="42.7777" gradientUnits="userSpaceOnUse">
<stop offset="0.0363151" stop-color="#3B53F1"/>
<stop offset="0.524591" stop-color="#6D80FD"/>
<stop offset="1" stop-color="#C9D0FE"/>
</linearGradient>
</defs>
</svg>
