<svg width="144" height="44" viewBox="0 0 144 44" fill="none" xmlns="http://www.w3.org/2000/svg">
<path d="M21.5052 11.92C21.67 11.912 21.8351 11.9079 22.0004 11.9079C22.1658 11.9079 22.3309 11.912 22.4956 11.92L23.0199 1.24719C22.6808 1.23053 22.3408 1.22217 22.0004 1.22217C21.6601 1.22217 21.3202 1.23053 20.9809 1.24719L21.5052 11.92Z" fill="url(#paint0_linear_5241_2355)"/>
<path d="M19.5482 12.2103C19.8687 12.1301 20.1929 12.0656 20.5196 12.0171L18.9517 1.44706C18.279 1.54685 17.6116 1.6796 16.9519 1.84485L19.5482 12.2103Z" fill="url(#paint1_linear_5241_2355)"/>
<path d="M23.4813 12.0171C23.808 12.0656 24.1322 12.1301 24.4526 12.2103L27.049 1.84485C26.3893 1.67961 25.7219 1.54685 25.0492 1.44706L23.4813 12.0171Z" fill="url(#paint2_linear_5241_2355)"/>
<path d="M18.1384 12.6761C18.2911 12.6128 18.4452 12.5534 18.6005 12.4978L15.0006 2.43675C14.6808 2.55118 14.3636 2.67354 14.0491 2.80378C13.7347 2.93403 13.4238 3.07184 13.1168 3.21705L17.6855 12.8768C17.8346 12.8063 17.9856 12.7394 18.1384 12.6761Z" fill="url(#paint3_linear_5241_2355)"/>
<path d="M25.4003 12.4978C25.5557 12.5534 25.7098 12.6128 25.8625 12.6761C26.0153 12.7394 26.1663 12.8063 26.3153 12.8768L30.8841 3.21706C30.577 3.07184 30.2662 2.93403 29.9518 2.80378C29.6373 2.67354 29.32 2.55118 29.0003 2.43675L25.4003 12.4978Z" fill="url(#paint4_linear_5241_2355)"/>
<path d="M15.9886 13.8939C16.2539 13.6972 16.5288 13.5135 16.8121 13.3437L11.3185 4.17825C10.7352 4.52789 10.1694 4.90595 9.62312 5.31107L15.9886 13.8939Z" fill="url(#paint5_linear_5241_2355)"/>
<path d="M27.1888 13.3437C27.4721 13.5135 27.747 13.6972 28.0123 13.8939L34.3778 5.31108C33.8315 4.90595 33.2657 4.52789 32.6823 4.17826L27.1888 13.3437Z" fill="url(#paint6_linear_5241_2355)"/>
<path d="M14.8643 14.8638C14.9812 14.7469 15.1008 14.633 15.223 14.5222L8.04691 6.60463C7.79527 6.83272 7.54898 7.06719 7.30833 7.30784C7.06768 7.5485 6.83321 7.79478 6.60512 8.04642L14.5227 15.2225C14.6335 15.1003 14.7474 14.9807 14.8643 14.8638Z" fill="url(#paint7_linear_5241_2355)"/>
<path d="M28.7779 14.5222C28.9001 14.633 29.0197 14.7469 29.1366 14.8638C29.2535 14.9807 29.3674 15.1003 29.4782 15.2226L37.3958 8.04642C37.1677 7.79478 36.9332 7.5485 36.6926 7.30784C36.4519 7.06719 36.2056 6.83272 35.954 6.60463L28.7779 14.5222Z" fill="url(#paint8_linear_5241_2355)"/>
<path d="M13.3442 16.8116C13.514 16.5283 13.6976 16.2534 13.8944 15.9881L5.31157 9.62263C4.90644 10.1689 4.52838 10.7347 4.17874 11.318L13.3442 16.8116Z" fill="url(#paint9_linear_5241_2355)"/>
<path d="M30.1065 15.9881C30.3032 16.2534 30.4869 16.5283 30.6567 16.8116L39.8222 11.318C39.4725 10.7347 39.0945 10.1689 38.6893 9.62263L30.1065 15.9881Z" fill="url(#paint10_linear_5241_2355)"/>
<path d="M12.6766 18.1379C12.7399 17.9851 12.8068 17.8341 12.8773 17.6851L3.21755 13.1163C3.07233 13.4233 2.93451 13.7342 2.80427 14.0486C2.67403 14.3631 2.55166 14.6804 2.43724 15.0001L12.4983 18.6001C12.5539 18.4447 12.6133 18.2906 12.6766 18.1379Z" fill="url(#paint11_linear_5241_2355)"/>
<path d="M31.1236 17.6851C31.1941 17.8341 31.2611 17.9851 31.3243 18.1379C31.3876 18.2906 31.447 18.4447 31.5026 18.6001L41.5637 15.0001C41.4492 14.6804 41.3269 14.3631 41.1966 14.0487C41.0664 13.7342 40.9285 13.4233 40.7833 13.1163L31.1236 17.6851Z" fill="url(#paint12_linear_5241_2355)"/>
<path d="M12.0176 20.5191C12.0661 20.1924 12.1306 19.8682 12.2108 19.5478L1.84534 16.9514C1.68009 17.6111 1.54733 18.2785 1.44754 18.9512L12.0176 20.5191Z" fill="url(#paint13_linear_5241_2355)"/>
<path d="M31.7901 19.5478C31.8703 19.8682 31.9348 20.1924 31.9833 20.5191L42.5533 18.9512C42.4535 18.2785 42.3208 17.6111 42.1555 16.9514L31.7901 19.5478Z" fill="url(#paint14_linear_5241_2355)"/>
<path d="M11.9084 22C11.9084 21.8346 11.9125 21.6695 11.9205 21.5048L1.24768 20.9805C1.23102 21.3197 1.22266 21.6596 1.22266 22C1.22266 24.7285 1.76009 27.4304 2.80427 29.9512C3.84845 32.4721 5.37893 34.7627 7.30833 36.6921C9.23771 38.6214 11.5283 40.1519 14.0491 41.1961C16.57 42.2403 19.2719 42.7777 22.0004 42.7777C24.729 42.7777 27.4309 42.2403 29.9518 41.1961C32.4726 40.1519 34.7632 38.6214 36.6926 36.6921C38.6219 34.7627 40.1524 32.4721 41.1966 29.9512C42.2408 27.4304 42.7782 24.7285 42.7782 22C42.7782 21.6596 42.7699 21.3197 42.7532 20.9805L32.0803 21.5048C32.0884 21.6695 32.0925 21.8347 32.0925 22C32.0925 23.3253 31.8315 24.6376 31.3243 25.862C30.8171 27.0864 30.0738 28.199 29.1366 29.1361C28.1995 30.0733 27.0869 30.8166 25.8625 31.3238C24.6381 31.831 23.3257 32.092 22.0004 32.092C20.6751 32.092 19.3628 31.831 18.1384 31.3238C16.9139 30.8166 15.8014 30.0733 14.8643 29.1361C13.9271 28.199 13.1838 27.0864 12.6766 25.862C12.1694 24.6376 11.9084 23.3253 11.9084 22Z" fill="url(#paint15_linear_5241_2355)"/>
<path d="M22.0017 11.9076C21.8364 11.9076 21.6713 11.9117 21.5065 11.9198L21.3074 7.86673C21.7678 7.66819 22.2397 7.49144 22.722 7.33787L22.4969 11.9198C22.3321 11.9117 22.167 11.9076 22.0017 11.9076Z" fill="#5165E1"/>
<path d="M24.2356 6.94004L23.4825 12.0169C23.8093 12.0654 24.1335 12.1298 24.4539 12.2101L25.8358 6.69334C25.2936 6.74792 24.7597 6.83066 24.2356 6.94004Z" fill="#5165E1"/>
<path d="M27.5062 6.61572L25.4016 12.4976C25.5569 12.5532 25.7111 12.6126 25.8637 12.6759C26.0165 12.7391 26.1675 12.8061 26.3166 12.8766L29.2269 6.72326C28.6622 6.65622 28.088 6.61983 27.5062 6.61572Z" fill="#5165E1"/>
<path d="M30.9722 7.03336L27.1901 13.3435C27.4734 13.5133 27.7482 13.6969 28.0136 13.8937L32.7118 7.5588C32.1468 7.3507 31.5662 7.17478 30.9722 7.03336Z" fill="#5165E1"/>
<path d="M34.4132 8.30574L28.7791 14.522C28.9014 14.6328 29.021 14.7467 29.1379 14.8636C29.2548 14.9804 29.3686 15.1001 29.4794 15.2223L36.0425 9.27385C35.5214 8.9191 34.9774 8.59548 34.4132 8.30574Z" fill="#5165E1"/>
<path d="M37.5657 10.4567L30.1077 15.9879C30.3045 16.2532 30.4881 16.528 30.658 16.8114L38.9493 11.8417C38.5178 11.3513 38.0556 10.8886 37.5657 10.4567Z" fill="#5165E1"/>
<path d="M40.1608 13.4111L31.1248 17.6848C31.1954 17.8339 31.2623 17.9849 31.3255 18.1376C31.3888 18.2904 31.4483 18.4445 31.5039 18.5998L41.1699 15.1413C40.8705 14.5412 40.5331 13.9634 40.1608 13.4111Z" fill="#5165E1"/>
<path d="M41.9498 17.003L31.7913 19.5475C31.8716 19.868 31.9361 20.1922 31.9846 20.5189L42.4796 18.9621C42.3455 18.2923 42.1679 17.6383 41.9498 17.003Z" fill="#5165E1"/>
<path d="M42.7462 20.9806L32.0816 21.5045C32.0897 21.6693 32.0938 21.8344 32.0938 21.9997C32.0938 23.325 31.8327 24.6374 31.3255 25.8618C30.8184 27.0862 30.075 28.1988 29.1379 29.1359C28.2007 30.073 27.0882 30.8164 25.8637 31.3236C24.6393 31.8308 23.327 32.0918 22.0017 32.0918C20.6764 32.0918 19.364 31.8308 18.1396 31.3236C16.9152 30.8164 15.8026 30.073 14.8655 29.1359C13.9284 28.1988 13.185 27.0862 12.6778 25.8618C12.4772 25.3774 12.3151 24.8793 12.1924 24.372C13.3332 31.7422 19.7053 37.3841 27.395 37.3841C35.8916 37.3841 42.7794 30.4963 42.7794 21.9997C42.7794 21.6573 42.7683 21.3175 42.7462 20.9806Z" fill="#5165E1"/>
<path d="M12.1924 19.6276C12.1988 19.6009 12.2054 19.5742 12.2121 19.5475L12.2053 19.5458C12.2009 19.5731 12.1966 19.6003 12.1924 19.6276Z" fill="#5165E1"/>
<path d="M12.396 18.5628L12.4996 18.5998C12.5552 18.4445 12.6146 18.2904 12.6778 18.1376C12.7411 17.9849 12.8081 17.8339 12.8786 17.6848L12.6552 17.5791C12.5583 17.9027 12.4718 18.2306 12.396 18.5628Z" fill="#5165E1"/>
<path d="M12.9864 16.5961L13.3455 16.8114C13.5153 16.528 13.6989 16.2532 13.8957 15.9879L13.3937 15.6155C13.247 15.9366 13.1111 16.2637 12.9864 16.5961Z" fill="#5165E1"/>
<path d="M13.8818 14.6402L14.524 15.2223C14.6347 15.1001 14.7486 14.9804 14.8655 14.8635C14.9824 14.7467 15.1021 14.6328 15.2243 14.522L14.4559 13.6742C14.2532 13.9885 14.0616 14.3107 13.8818 14.6402Z" fill="#5165E1"/>
<path d="M15.1214 12.7227L15.9899 13.8937C16.2552 13.6969 16.53 13.5133 16.8134 13.3435L15.8839 11.7929C15.618 12.0926 15.3636 12.4027 15.1214 12.7227Z" fill="#5165E1"/>
<path d="M16.749 10.8938L17.6868 12.8766C17.8359 12.8061 17.9869 12.7391 18.1396 12.6759C18.2924 12.6126 18.4465 12.5532 18.6018 12.4976L17.7213 10.0367C17.3852 10.3088 17.0608 10.5948 16.749 10.8938Z" fill="#5165E1"/>
<path d="M18.8044 9.23534L19.5495 12.2101C19.87 12.1298 20.1941 12.0654 20.5209 12.0169L20.0001 8.5059C19.5898 8.73122 19.1908 8.97474 18.8044 9.23534Z" fill="#5165E1"/>
<path d="M69.8 8.54V23H67.1V16.68H60.31V23H57.61V8.54H60.31V14.76H67.1V8.54H69.8ZM78.9277 16.69C78.9277 16.37 78.881 16.07 78.7877 15.79C78.701 15.5033 78.5677 15.2533 78.3877 15.04C78.2077 14.8267 77.9777 14.66 77.6977 14.54C77.4243 14.4133 77.1043 14.35 76.7377 14.35C76.0243 14.35 75.461 14.5533 75.0477 14.96C74.641 15.3667 74.381 15.9433 74.2677 16.69H78.9277ZM74.2177 18.18C74.2577 18.7067 74.351 19.1633 74.4977 19.55C74.6443 19.93 74.8377 20.2467 75.0777 20.5C75.3177 20.7467 75.601 20.9333 75.9277 21.06C76.261 21.18 76.6277 21.24 77.0277 21.24C77.4277 21.24 77.771 21.1933 78.0577 21.1C78.351 21.0067 78.6043 20.9033 78.8177 20.79C79.0377 20.6767 79.2277 20.5733 79.3877 20.48C79.5543 20.3867 79.7143 20.34 79.8677 20.34C80.0743 20.34 80.2277 20.4167 80.3277 20.57L81.0377 21.47C80.7643 21.79 80.4577 22.06 80.1177 22.28C79.7777 22.4933 79.421 22.6667 79.0477 22.8C78.681 22.9267 78.3043 23.0167 77.9177 23.07C77.5377 23.1233 77.1677 23.15 76.8077 23.15C76.0943 23.15 75.431 23.0333 74.8177 22.8C74.2043 22.56 73.671 22.21 73.2177 21.75C72.7643 21.2833 72.4077 20.71 72.1477 20.03C71.8877 19.3433 71.7577 18.55 71.7577 17.65C71.7577 16.95 71.871 16.2933 72.0977 15.68C72.3243 15.06 72.6477 14.5233 73.0677 14.07C73.4943 13.61 74.011 13.2467 74.6177 12.98C75.231 12.7133 75.921 12.58 76.6877 12.58C77.3343 12.58 77.931 12.6833 78.4777 12.89C79.0243 13.0967 79.4943 13.4 79.8877 13.8C80.281 14.1933 80.5877 14.68 80.8077 15.26C81.0343 15.8333 81.1477 16.49 81.1477 17.23C81.1477 17.6033 81.1077 17.8567 81.0277 17.99C80.9477 18.1167 80.7943 18.18 80.5677 18.18H74.2177ZM85.5013 8.14V23H83.0312V8.14H85.5013ZM90.4322 20.34C90.7122 20.68 91.0155 20.92 91.3422 21.06C91.6755 21.2 92.0355 21.27 92.4222 21.27C92.7955 21.27 93.1322 21.2 93.4322 21.06C93.7322 20.92 93.9855 20.7067 94.1922 20.42C94.4055 20.1333 94.5689 19.7733 94.6822 19.34C94.7955 18.9 94.8522 18.3833 94.8522 17.79C94.8522 17.19 94.8022 16.6833 94.7022 16.27C94.6089 15.85 94.4722 15.51 94.2922 15.25C94.1122 14.99 93.8922 14.8 93.6322 14.68C93.3789 14.56 93.0889 14.5 92.7622 14.5C92.2489 14.5 91.8122 14.61 91.4522 14.83C91.0922 15.0433 90.7522 15.3467 90.4322 15.74V20.34ZM90.3022 14.14C90.7222 13.6667 91.1989 13.2833 91.7322 12.99C92.2655 12.6967 92.8922 12.55 93.6122 12.55C94.1722 12.55 94.6822 12.6667 95.1422 12.9C95.6089 13.1333 96.0089 13.4733 96.3422 13.92C96.6822 14.36 96.9422 14.9067 97.1222 15.56C97.3089 16.2067 97.4022 16.95 97.4022 17.79C97.4022 18.5567 97.2989 19.2667 97.0922 19.92C96.8855 20.5733 96.5889 21.14 96.2022 21.62C95.8222 22.1 95.3589 22.4767 94.8122 22.75C94.2722 23.0167 93.6655 23.15 92.9922 23.15C92.4189 23.15 91.9289 23.0633 91.5222 22.89C91.1155 22.71 90.7522 22.4633 90.4322 22.15V26.35H87.9622V12.74H89.4722C89.7922 12.74 90.0022 12.89 90.1022 13.19L90.3022 14.14ZM112.266 15.77C112.266 16.83 112.09 17.8033 111.736 18.69C111.383 19.5767 110.886 20.34 110.246 20.98C109.606 21.62 108.836 22.1167 107.936 22.47C107.036 22.8233 106.036 23 104.936 23H99.4264V8.54H104.936C106.036 8.54 107.036 8.72 107.936 9.08C108.836 9.43333 109.606 9.93 110.246 10.57C110.886 11.2033 111.383 11.9633 111.736 12.85C112.09 13.7367 112.266 14.71 112.266 15.77ZM109.506 15.77C109.506 14.9767 109.4 14.2667 109.186 13.64C108.98 13.0067 108.676 12.4733 108.276 12.04C107.883 11.6 107.403 11.2633 106.836 11.03C106.276 10.7967 105.643 10.68 104.936 10.68H102.126V20.86H104.936C105.643 20.86 106.276 20.7433 106.836 20.51C107.403 20.2767 107.883 19.9433 108.276 19.51C108.676 19.07 108.98 18.5367 109.186 17.91C109.4 17.2767 109.506 16.5633 109.506 15.77ZM120.725 16.69C120.725 16.37 120.678 16.07 120.585 15.79C120.498 15.5033 120.365 15.2533 120.185 15.04C120.005 14.8267 119.775 14.66 119.495 14.54C119.221 14.4133 118.901 14.35 118.535 14.35C117.821 14.35 117.258 14.5533 116.845 14.96C116.438 15.3667 116.178 15.9433 116.065 16.69H120.725ZM116.015 18.18C116.055 18.7067 116.148 19.1633 116.295 19.55C116.441 19.93 116.635 20.2467 116.875 20.5C117.115 20.7467 117.398 20.9333 117.725 21.06C118.058 21.18 118.425 21.24 118.825 21.24C119.225 21.24 119.568 21.1933 119.855 21.1C120.148 21.0067 120.401 20.9033 120.615 20.79C120.835 20.6767 121.025 20.5733 121.185 20.48C121.351 20.3867 121.511 20.34 121.665 20.34C121.871 20.34 122.025 20.4167 122.125 20.57L122.835 21.47C122.561 21.79 122.255 22.06 121.915 22.28C121.575 22.4933 121.218 22.6667 120.845 22.8C120.478 22.9267 120.101 23.0167 119.715 23.07C119.335 23.1233 118.965 23.15 118.605 23.15C117.891 23.15 117.228 23.0333 116.615 22.8C116.001 22.56 115.468 22.21 115.015 21.75C114.561 21.2833 114.205 20.71 113.945 20.03C113.685 19.3433 113.555 18.55 113.555 17.65C113.555 16.95 113.668 16.2933 113.895 15.68C114.121 15.06 114.445 14.5233 114.865 14.07C115.291 13.61 115.808 13.2467 116.415 12.98C117.028 12.7133 117.718 12.58 118.485 12.58C119.131 12.58 119.728 12.6833 120.275 12.89C120.821 13.0967 121.291 13.4 121.685 13.8C122.078 14.1933 122.385 14.68 122.605 15.26C122.831 15.8333 122.945 16.49 122.945 17.23C122.945 17.6033 122.905 17.8567 122.825 17.99C122.745 18.1167 122.591 18.18 122.365 18.18H116.015ZM131.058 14.74C130.991 14.8467 130.921 14.9233 130.848 14.97C130.775 15.01 130.681 15.03 130.568 15.03C130.448 15.03 130.318 14.9967 130.178 14.93C130.045 14.8633 129.888 14.79 129.708 14.71C129.528 14.6233 129.321 14.5467 129.088 14.48C128.861 14.4133 128.591 14.38 128.278 14.38C127.791 14.38 127.408 14.4833 127.128 14.69C126.855 14.8967 126.718 15.1667 126.718 15.5C126.718 15.72 126.788 15.9067 126.928 16.06C127.075 16.2067 127.265 16.3367 127.498 16.45C127.738 16.5633 128.008 16.6667 128.308 16.76C128.608 16.8467 128.911 16.9433 129.218 17.05C129.531 17.1567 129.838 17.28 130.138 17.42C130.438 17.5533 130.705 17.7267 130.938 17.94C131.178 18.1467 131.368 18.3967 131.508 18.69C131.655 18.9833 131.728 19.3367 131.728 19.75C131.728 20.2433 131.638 20.7 131.458 21.12C131.285 21.5333 131.025 21.8933 130.678 22.2C130.331 22.5 129.901 22.7367 129.388 22.91C128.881 23.0767 128.295 23.16 127.628 23.16C127.275 23.16 126.928 23.1267 126.588 23.06C126.255 23 125.931 22.9133 125.618 22.8C125.311 22.6867 125.025 22.5533 124.758 22.4C124.498 22.2467 124.268 22.08 124.068 21.9L124.638 20.96C124.711 20.8467 124.798 20.76 124.898 20.7C124.998 20.64 125.125 20.61 125.278 20.61C125.431 20.61 125.575 20.6533 125.708 20.74C125.848 20.8267 126.008 20.92 126.188 21.02C126.368 21.12 126.578 21.2133 126.818 21.3C127.065 21.3867 127.375 21.43 127.748 21.43C128.041 21.43 128.291 21.3967 128.498 21.33C128.711 21.2567 128.885 21.1633 129.018 21.05C129.158 20.9367 129.258 20.8067 129.318 20.66C129.385 20.5067 129.418 20.35 129.418 20.19C129.418 19.95 129.345 19.7533 129.198 19.6C129.058 19.4467 128.868 19.3133 128.628 19.2C128.395 19.0867 128.125 18.9867 127.818 18.9C127.518 18.8067 127.208 18.7067 126.888 18.6C126.575 18.4933 126.265 18.37 125.958 18.23C125.658 18.0833 125.388 17.9 125.148 17.68C124.915 17.46 124.725 17.19 124.578 16.87C124.438 16.55 124.368 16.1633 124.368 15.71C124.368 15.29 124.451 14.89 124.618 14.51C124.785 14.13 125.028 13.8 125.348 13.52C125.675 13.2333 126.078 13.0067 126.558 12.84C127.045 12.6667 127.605 12.58 128.238 12.58C128.945 12.58 129.588 12.6967 130.168 12.93C130.748 13.1633 131.231 13.47 131.618 13.85L131.058 14.74ZM136.057 8.14V16.65H136.517C136.684 16.65 136.814 16.63 136.907 16.59C137.007 16.5433 137.107 16.4533 137.207 16.32L139.757 13.17C139.864 13.03 139.981 12.9233 140.107 12.85C140.241 12.7767 140.411 12.74 140.617 12.74H142.877L139.687 16.55C139.461 16.85 139.214 17.08 138.947 17.24C139.087 17.34 139.211 17.4567 139.317 17.59C139.431 17.7233 139.537 17.8667 139.637 18.02L143.057 23H140.827C140.634 23 140.467 22.97 140.327 22.91C140.187 22.8433 140.071 22.7267 139.977 22.56L137.357 18.67C137.264 18.5167 137.167 18.4167 137.067 18.37C136.967 18.3233 136.817 18.3 136.617 18.3H136.057V23H133.587V8.14H136.057Z" fill="#F9FAFA"/>
<path d="M61.9798 38.295C62.0531 38.295 62.1181 38.3233 62.1748 38.38L62.7048 38.955C62.4114 39.3183 62.0498 39.5967 61.6198 39.79C61.1931 39.9833 60.6798 40.08 60.0798 40.08C59.5431 40.08 59.0598 39.9883 58.6298 39.805C58.2031 39.6217 57.8381 39.3667 57.5348 39.04C57.2314 38.7133 56.9981 38.3233 56.8348 37.87C56.6748 37.4167 56.5948 36.9217 56.5948 36.385C56.5948 35.8417 56.6814 35.345 56.8548 34.895C57.0281 34.4417 57.2714 34.0517 57.5848 33.725C57.9014 33.3983 58.2781 33.145 58.7148 32.965C59.1514 32.7817 59.6348 32.69 60.1648 32.69C60.6914 32.69 61.1581 32.7767 61.5648 32.95C61.9748 33.1233 62.3231 33.35 62.6098 33.63L62.1598 34.255C62.1331 34.295 62.0981 34.33 62.0548 34.36C62.0148 34.39 61.9581 34.405 61.8848 34.405C61.8348 34.405 61.7831 34.3917 61.7298 34.365C61.6764 34.335 61.6181 34.3 61.5548 34.26C61.4914 34.2167 61.4181 34.17 61.3348 34.12C61.2514 34.07 61.1548 34.025 61.0448 33.985C60.9348 33.9417 60.8064 33.9067 60.6598 33.88C60.5164 33.85 60.3498 33.835 60.1598 33.835C59.8364 33.835 59.5398 33.8933 59.2698 34.01C59.0031 34.1233 58.7731 34.29 58.5798 34.51C58.3864 34.7267 58.2364 34.9933 58.1298 35.31C58.0231 35.6233 57.9698 35.9817 57.9698 36.385C57.9698 36.7917 58.0264 37.1533 58.1398 37.47C58.2564 37.7867 58.4131 38.0533 58.6098 38.27C58.8064 38.4867 59.0381 38.6533 59.3048 38.77C59.5714 38.8833 59.8581 38.94 60.1648 38.94C60.3481 38.94 60.5131 38.93 60.6598 38.91C60.8098 38.89 60.9464 38.8583 61.0698 38.815C61.1964 38.7717 61.3148 38.7167 61.4248 38.65C61.5381 38.58 61.6498 38.495 61.7598 38.395C61.7931 38.365 61.8281 38.3417 61.8648 38.325C61.9014 38.305 61.9398 38.295 61.9798 38.295ZM68.4611 38.89V40H64.2261V32.77H65.5711V38.89H68.4611ZM71.3714 40H70.0214V32.77H71.3714V40ZM74.9402 33.84V35.845H77.4702V36.88H74.9402V38.925H78.1502V40H73.5902V32.77H78.1502V33.84H74.9402ZM86.0371 32.77V40H85.3471C85.2404 40 85.1504 39.9833 85.0771 39.95C85.0071 39.9133 84.9388 39.8533 84.8721 39.77L81.0971 34.95C81.1171 35.17 81.1271 35.3733 81.1271 35.56V40H79.9421V32.77H80.6471C80.7038 32.77 80.7521 32.7733 80.7921 32.78C80.8354 32.7833 80.8721 32.7933 80.9021 32.81C80.9354 32.8233 80.9671 32.845 80.9971 32.875C81.0271 32.9017 81.0604 32.9383 81.0971 32.985L84.8871 37.825C84.8771 37.7083 84.8688 37.5933 84.8621 37.48C84.8554 37.3667 84.8521 37.2617 84.8521 37.165V32.77H86.0371ZM93.2972 33.875H91.1172V40H89.7722V33.875H87.5922V32.77H93.2972V33.875ZM96.1933 33.84V35.845H98.7233V36.88H96.1933V38.925H99.4033V40H94.8433V32.77H99.4033V33.84H96.1933Z" fill="#8996EB"/>
<defs>
<linearGradient id="paint0_linear_5241_2355" x1="-4.8029" y1="-3.55673" x2="40.3888" y2="42.7777" gradientUnits="userSpaceOnUse">
<stop offset="0.0363151" stop-color="#3B53F1"/>
<stop offset="0.524591" stop-color="#6D80FD"/>
<stop offset="1" stop-color="#C9D0FE"/>
</linearGradient>
<linearGradient id="paint1_linear_5241_2355" x1="-4.8029" y1="-3.55673" x2="40.3888" y2="42.7777" gradientUnits="userSpaceOnUse">
<stop offset="0.0363151" stop-color="#3B53F1"/>
<stop offset="0.524591" stop-color="#6D80FD"/>
<stop offset="1" stop-color="#C9D0FE"/>
</linearGradient>
<linearGradient id="paint2_linear_5241_2355" x1="-4.8029" y1="-3.55673" x2="40.3888" y2="42.7777" gradientUnits="userSpaceOnUse">
<stop offset="0.0363151" stop-color="#3B53F1"/>
<stop offset="0.524591" stop-color="#6D80FD"/>
<stop offset="1" stop-color="#C9D0FE"/>
</linearGradient>
<linearGradient id="paint3_linear_5241_2355" x1="-4.8029" y1="-3.55673" x2="40.3888" y2="42.7777" gradientUnits="userSpaceOnUse">
<stop offset="0.0363151" stop-color="#3B53F1"/>
<stop offset="0.524591" stop-color="#6D80FD"/>
<stop offset="1" stop-color="#C9D0FE"/>
</linearGradient>
<linearGradient id="paint4_linear_5241_2355" x1="-4.8029" y1="-3.55673" x2="40.3888" y2="42.7777" gradientUnits="userSpaceOnUse">
<stop offset="0.0363151" stop-color="#3B53F1"/>
<stop offset="0.524591" stop-color="#6D80FD"/>
<stop offset="1" stop-color="#C9D0FE"/>
</linearGradient>
<linearGradient id="paint5_linear_5241_2355" x1="-4.8029" y1="-3.55673" x2="40.3888" y2="42.7777" gradientUnits="userSpaceOnUse">
<stop offset="0.0363151" stop-color="#3B53F1"/>
<stop offset="0.524591" stop-color="#6D80FD"/>
<stop offset="1" stop-color="#C9D0FE"/>
</linearGradient>
<linearGradient id="paint6_linear_5241_2355" x1="-4.8029" y1="-3.55673" x2="40.3888" y2="42.7777" gradientUnits="userSpaceOnUse">
<stop offset="0.0363151" stop-color="#3B53F1"/>
<stop offset="0.524591" stop-color="#6D80FD"/>
<stop offset="1" stop-color="#C9D0FE"/>
</linearGradient>
<linearGradient id="paint7_linear_5241_2355" x1="-4.8029" y1="-3.55673" x2="40.3888" y2="42.7777" gradientUnits="userSpaceOnUse">
<stop offset="0.0363151" stop-color="#3B53F1"/>
<stop offset="0.524591" stop-color="#6D80FD"/>
<stop offset="1" stop-color="#C9D0FE"/>
</linearGradient>
<linearGradient id="paint8_linear_5241_2355" x1="-4.8029" y1="-3.55673" x2="40.3888" y2="42.7777" gradientUnits="userSpaceOnUse">
<stop offset="0.0363151" stop-color="#3B53F1"/>
<stop offset="0.524591" stop-color="#6D80FD"/>
<stop offset="1" stop-color="#C9D0FE"/>
</linearGradient>
<linearGradient id="paint9_linear_5241_2355" x1="-4.8029" y1="-3.55673" x2="40.3888" y2="42.7777" gradientUnits="userSpaceOnUse">
<stop offset="0.0363151" stop-color="#3B53F1"/>
<stop offset="0.524591" stop-color="#6D80FD"/>
<stop offset="1" stop-color="#C9D0FE"/>
</linearGradient>
<linearGradient id="paint10_linear_5241_2355" x1="-4.8029" y1="-3.55673" x2="40.3888" y2="42.7777" gradientUnits="userSpaceOnUse">
<stop offset="0.0363151" stop-color="#3B53F1"/>
<stop offset="0.524591" stop-color="#6D80FD"/>
<stop offset="1" stop-color="#C9D0FE"/>
</linearGradient>
<linearGradient id="paint11_linear_5241_2355" x1="-4.8029" y1="-3.55673" x2="40.3888" y2="42.7777" gradientUnits="userSpaceOnUse">
<stop offset="0.0363151" stop-color="#3B53F1"/>
<stop offset="0.524591" stop-color="#6D80FD"/>
<stop offset="1" stop-color="#C9D0FE"/>
</linearGradient>
<linearGradient id="paint12_linear_5241_2355" x1="-4.8029" y1="-3.55673" x2="40.3888" y2="42.7777" gradientUnits="userSpaceOnUse">
<stop offset="0.0363151" stop-color="#3B53F1"/>
<stop offset="0.524591" stop-color="#6D80FD"/>
<stop offset="1" stop-color="#C9D0FE"/>
</linearGradient>
<linearGradient id="paint13_linear_5241_2355" x1="-4.8029" y1="-3.55673" x2="40.3888" y2="42.7777" gradientUnits="userSpaceOnUse">
<stop offset="0.0363151" stop-color="#3B53F1"/>
<stop offset="0.524591" stop-color="#6D80FD"/>
<stop offset="1" stop-color="#C9D0FE"/>
</linearGradient>
<linearGradient id="paint14_linear_5241_2355" x1="-4.8029" y1="-3.55673" x2="40.3888" y2="42.7777" gradientUnits="userSpaceOnUse">
<stop offset="0.0363151" stop-color="#3B53F1"/>
<stop offset="0.524591" stop-color="#6D80FD"/>
<stop offset="1" stop-color="#C9D0FE"/>
</linearGradient>
<linearGradient id="paint15_linear_5241_2355" x1="-4.8029" y1="-3.55673" x2="40.3888" y2="42.7777" gradientUnits="userSpaceOnUse">
<stop offset="0.0363151" stop-color="#3B53F1"/>
<stop offset="0.524591" stop-color="#6D80FD"/>
<stop offset="1" stop-color="#C9D0FE"/>
</linearGradient>
</defs>
</svg>
