<svg width="144" height="44" viewBox="0 0 144 44" fill="none" xmlns="http://www.w3.org/2000/svg">
<path d="M21.5048 11.9201C21.6696 11.912 21.8347 11.908 22 11.908C22.1654 11.908 22.3305 11.912 22.4952 11.9201L23.0195 1.24726C22.6803 1.23059 22.3404 1.22223 22 1.22223C21.6597 1.22223 21.3198 1.23059 20.9805 1.24726L21.5048 11.9201Z" fill="url(#paint0_linear_5137_2645)"/>
<path d="M19.5478 12.2104C19.8683 12.1302 20.1924 12.0656 20.5192 12.0172L18.9513 1.44712C18.2786 1.54691 17.6111 1.67966 16.9514 1.84491L19.5478 12.2104Z" fill="url(#paint1_linear_5137_2645)"/>
<path d="M23.4808 12.0172C23.8076 12.0656 24.1318 12.1302 24.4522 12.2104L27.0486 1.84491C26.3889 1.67967 25.7215 1.54691 25.0488 1.44712L23.4808 12.0172Z" fill="url(#paint2_linear_5137_2645)"/>
<path d="M18.1379 12.6761C18.2907 12.6129 18.4448 12.5535 18.6001 12.4979L15.0002 2.43682C14.6804 2.55124 14.3632 2.6736 14.0487 2.80384C13.7342 2.93409 13.4234 3.0719 13.1164 3.21711L17.6851 12.8769C17.8342 12.8064 17.9852 12.7394 18.1379 12.6761Z" fill="url(#paint3_linear_5137_2645)"/>
<path d="M25.3999 12.4979C25.5552 12.5535 25.7094 12.6129 25.8621 12.6761C26.0148 12.7394 26.1658 12.8064 26.3149 12.8769L30.8837 3.21712C30.5766 3.0719 30.2658 2.93409 29.9513 2.80384C29.6369 2.6736 29.3196 2.55124 28.9999 2.43682L25.3999 12.4979Z" fill="url(#paint4_linear_5137_2645)"/>
<path d="M15.9882 13.894C16.2535 13.6972 16.5283 13.5136 16.8117 13.3438L11.3181 4.17831C10.7348 4.52795 10.169 4.90601 9.62269 5.31114L15.9882 13.894Z" fill="url(#paint5_linear_5137_2645)"/>
<path d="M27.1884 13.3438C27.4717 13.5136 27.7466 13.6972 28.0119 13.894L34.3773 5.31114C33.8311 4.90602 33.2653 4.52795 32.6819 4.17832L27.1884 13.3438Z" fill="url(#paint6_linear_5137_2645)"/>
<path d="M14.8639 14.8639C14.9807 14.747 15.1004 14.633 15.2226 14.5223L8.04649 6.60469C7.79484 6.83279 7.54856 7.06725 7.3079 7.3079C7.06725 7.54856 6.83279 7.79484 6.60469 8.04649L14.5223 15.2226C14.633 15.1004 14.747 14.9807 14.8639 14.8639Z" fill="url(#paint7_linear_5137_2645)"/>
<path d="M28.7775 14.5223C28.8997 14.633 29.0193 14.747 29.1362 14.8639C29.2531 14.9807 29.367 15.1004 29.4778 15.2226L37.3953 8.04649C37.1672 7.79484 36.9328 7.54856 36.6921 7.3079C36.4515 7.06725 36.2052 6.83279 35.9535 6.60469L28.7775 14.5223Z" fill="url(#paint8_linear_5137_2645)"/>
<path d="M13.3438 16.8117C13.5136 16.5283 13.6972 16.2535 13.894 15.9882L5.31114 9.62269C4.90602 10.169 4.52795 10.7348 4.17832 11.3181L13.3438 16.8117Z" fill="url(#paint9_linear_5137_2645)"/>
<path d="M30.106 15.9882C30.3028 16.2535 30.4864 16.5283 30.6563 16.8117L39.8217 11.3181C39.4721 10.7348 39.094 10.169 38.6889 9.62269L30.106 15.9882Z" fill="url(#paint10_linear_5137_2645)"/>
<path d="M12.6761 18.1379C12.7394 17.9852 12.8064 17.8342 12.8769 17.6851L3.21712 13.1164C3.0719 13.4234 2.93409 13.7342 2.80384 14.0487C2.6736 14.3631 2.55124 14.6804 2.43682 15.0002L12.4979 18.6001C12.5535 18.4448 12.6129 18.2907 12.6761 18.1379Z" fill="url(#paint11_linear_5137_2645)"/>
<path d="M31.1231 17.6851C31.1937 17.8342 31.2606 17.9852 31.3239 18.1379C31.3871 18.2907 31.4466 18.4448 31.5022 18.6001L41.5632 15.0002C41.4488 14.6804 41.3264 14.3632 41.1962 14.0487C41.0659 13.7342 40.9281 13.4234 40.7829 13.1164L31.1231 17.6851Z" fill="url(#paint12_linear_5137_2645)"/>
<path d="M12.0172 20.5192C12.0656 20.1924 12.1302 19.8683 12.2104 19.5478L1.84491 16.9514C1.67967 17.6111 1.54691 18.2785 1.44712 18.9513L12.0172 20.5192Z" fill="url(#paint13_linear_5137_2645)"/>
<path d="M31.7896 19.5478C31.8699 19.8683 31.9344 20.1924 31.9829 20.5192L42.5529 18.9513C42.4531 18.2786 42.3204 17.6111 42.1551 16.9514L31.7896 19.5478Z" fill="url(#paint14_linear_5137_2645)"/>
<path d="M11.908 22C11.908 21.8347 11.912 21.6696 11.9201 21.5048L1.24726 20.9805C1.23059 21.3198 1.22223 21.6597 1.22223 22C1.22223 24.7286 1.75966 27.4305 2.80384 29.9513C3.84802 32.4722 5.37851 34.7627 7.3079 36.6921C9.23728 38.6215 11.5278 40.152 14.0487 41.1962C16.5696 42.2403 19.2714 42.7778 22 42.7778C24.7286 42.7778 27.4304 42.2403 29.9513 41.1962C32.4722 40.152 34.7627 38.6215 36.6921 36.6921C38.6215 34.7627 40.152 32.4722 41.1962 29.9513C42.2403 27.4305 42.7778 24.7286 42.7778 22C42.7778 21.6597 42.7694 21.3198 42.7528 20.9805L32.0799 21.5048C32.088 21.6696 32.0921 21.8347 32.0921 22C32.0921 23.3253 31.831 24.6376 31.3239 25.8621C30.8167 27.0865 30.0733 28.199 29.1362 29.1362C28.199 30.0733 27.0865 30.8167 25.8621 31.3239C24.6376 31.831 23.3253 32.0921 22 32.0921C20.6747 32.0921 19.3624 31.831 18.1379 31.3239C16.9135 30.8167 15.801 30.0733 14.8639 29.1362C13.9267 28.199 13.1834 27.0865 12.6761 25.8621C12.169 24.6376 11.908 23.3253 11.908 22Z" fill="url(#paint15_linear_5137_2645)"/>
<path d="M22.0014 11.9076C21.8361 11.9076 21.6709 11.9116 21.5062 11.9198L21.3071 7.86667C21.7674 7.66812 22.2394 7.49138 22.7217 7.3378L22.4966 11.9198C22.3318 11.9116 22.1667 11.9076 22.0014 11.9076Z" fill="#5165E1"/>
<path d="M24.2353 6.93998L23.4822 12.0168C23.809 12.0653 24.1332 12.1298 24.4536 12.2101L25.8355 6.69328C25.2933 6.74785 24.7594 6.8306 24.2353 6.93998Z" fill="#5165E1"/>
<path d="M27.5059 6.61566L25.4013 12.4975C25.5566 12.5531 25.7107 12.6125 25.8634 12.6758C26.0162 12.7391 26.1672 12.806 26.3163 12.8766L29.2266 6.7232C28.6619 6.65616 28.0877 6.61977 27.5059 6.61566Z" fill="#5165E1"/>
<path d="M30.9719 7.03329L27.1898 13.3434C27.4731 13.5132 27.7479 13.6969 28.0132 13.8937L32.7115 7.55874C32.1465 7.35064 31.5659 7.17472 30.9719 7.03329Z" fill="#5165E1"/>
<path d="M34.4129 8.30568L28.7788 14.5219C28.9011 14.6327 29.0206 14.7466 29.1376 14.8635C29.2545 14.9804 29.3683 15.1 29.4791 15.2222L36.0422 9.27379C35.5211 8.91904 34.9771 8.59541 34.4129 8.30568Z" fill="#5165E1"/>
<path d="M37.5654 10.4566L30.1074 15.9878C30.3042 16.2531 30.4878 16.528 30.6577 16.8113L38.949 11.8416C38.5175 11.3513 38.0553 10.8886 37.5654 10.4566Z" fill="#5165E1"/>
<path d="M40.1605 13.4111L31.1245 17.6847C31.1951 17.8339 31.262 17.9848 31.3252 18.1376C31.3885 18.2903 31.448 18.4445 31.5035 18.5998L41.1696 15.1412C40.8702 14.5411 40.5328 13.9633 40.1605 13.4111Z" fill="#5165E1"/>
<path d="M41.9495 17.0029L31.791 19.5475C31.8713 19.8679 31.9358 20.1921 31.9843 20.5189L42.4793 18.962C42.3452 18.2923 42.1676 17.6382 41.9495 17.0029Z" fill="#5165E1"/>
<path d="M42.7459 20.9805L32.0813 21.5045C32.0894 21.6692 32.0934 21.8343 32.0934 21.9997C32.0934 23.325 31.8324 24.6373 31.3252 25.8617C30.8181 27.0862 30.0747 28.1987 29.1376 29.1358C28.2004 30.073 27.0879 30.8163 25.8634 31.3235C24.639 31.8307 23.3267 32.0917 22.0014 32.0917C20.6761 32.0917 19.3637 31.8307 18.1393 31.3235C16.9149 30.8163 15.8023 30.073 14.8652 29.1358C13.9281 28.1987 13.1847 27.0862 12.6775 25.8617C12.4769 25.3773 12.3148 24.8792 12.1921 24.372C13.3329 31.7422 19.705 37.3841 27.3947 37.3841C35.8913 37.3841 42.7791 30.4963 42.7791 21.9997C42.7791 21.6572 42.768 21.3174 42.7459 20.9805Z" fill="#5165E1"/>
<path d="M12.1921 19.6275C12.1985 19.6008 12.2051 19.5742 12.2118 19.5475L12.205 19.5458C12.2006 19.573 12.1963 19.6002 12.1921 19.6275Z" fill="#5165E1"/>
<path d="M12.3957 18.5627L12.4993 18.5997C12.5549 18.4445 12.6143 18.2903 12.6775 18.1376C12.7408 17.9848 12.8077 17.8339 12.8783 17.6847L12.6549 17.5791C12.558 17.9026 12.4715 18.2306 12.3957 18.5627Z" fill="#5165E1"/>
<path d="M12.9861 16.5961L13.3452 16.8113C13.515 16.528 13.6986 16.2531 13.8954 15.9878L13.3934 15.6155C13.2467 15.9366 13.1108 16.2636 12.9861 16.5961Z" fill="#5165E1"/>
<path d="M13.8815 14.6402L14.5237 15.2222C14.6344 15.1 14.7483 14.9804 14.8652 14.8635C14.9821 14.7466 15.1018 14.6327 15.224 14.5219L14.4556 13.6741C14.2529 13.9884 14.0613 14.3107 13.8815 14.6402Z" fill="#5165E1"/>
<path d="M15.1211 12.7226L15.9896 13.8937C16.2549 13.6969 16.5297 13.5132 16.8131 13.3434L15.8836 11.7928C15.6177 12.0925 15.3633 12.4027 15.1211 12.7226Z" fill="#5165E1"/>
<path d="M16.7487 10.8937L17.6865 12.8766C17.8356 12.806 17.9866 12.7391 18.1393 12.6758C18.2921 12.6125 18.4462 12.5531 18.6015 12.4975L17.721 10.0367C17.3849 10.3087 17.0605 10.5947 16.7487 10.8937Z" fill="#5165E1"/>
<path d="M18.8041 9.23528L19.5492 12.2101C19.8697 12.1298 20.1938 12.0653 20.5206 12.0168L19.9998 8.50584C19.5895 8.73116 19.1905 8.97468 18.8041 9.23528Z" fill="#5165E1"/>
<path d="M69.8 8.54V23H67.1V16.68H60.31V23H57.61V8.54H60.31V14.76H67.1V8.54H69.8ZM78.9277 16.69C78.9277 16.37 78.881 16.07 78.7877 15.79C78.701 15.5033 78.5677 15.2533 78.3877 15.04C78.2077 14.8267 77.9777 14.66 77.6977 14.54C77.4243 14.4133 77.1043 14.35 76.7377 14.35C76.0243 14.35 75.461 14.5533 75.0477 14.96C74.641 15.3667 74.381 15.9433 74.2677 16.69H78.9277ZM74.2177 18.18C74.2577 18.7067 74.351 19.1633 74.4977 19.55C74.6443 19.93 74.8377 20.2467 75.0777 20.5C75.3177 20.7467 75.601 20.9333 75.9277 21.06C76.261 21.18 76.6277 21.24 77.0277 21.24C77.4277 21.24 77.771 21.1933 78.0577 21.1C78.351 21.0067 78.6043 20.9033 78.8177 20.79C79.0377 20.6767 79.2277 20.5733 79.3877 20.48C79.5543 20.3867 79.7143 20.34 79.8677 20.34C80.0743 20.34 80.2277 20.4167 80.3277 20.57L81.0377 21.47C80.7643 21.79 80.4577 22.06 80.1177 22.28C79.7777 22.4933 79.421 22.6667 79.0477 22.8C78.681 22.9267 78.3043 23.0167 77.9177 23.07C77.5377 23.1233 77.1677 23.15 76.8077 23.15C76.0943 23.15 75.431 23.0333 74.8177 22.8C74.2043 22.56 73.671 22.21 73.2177 21.75C72.7643 21.2833 72.4077 20.71 72.1477 20.03C71.8877 19.3433 71.7577 18.55 71.7577 17.65C71.7577 16.95 71.871 16.2933 72.0977 15.68C72.3243 15.06 72.6477 14.5233 73.0677 14.07C73.4943 13.61 74.011 13.2467 74.6177 12.98C75.231 12.7133 75.921 12.58 76.6877 12.58C77.3343 12.58 77.931 12.6833 78.4777 12.89C79.0243 13.0967 79.4943 13.4 79.8877 13.8C80.281 14.1933 80.5877 14.68 80.8077 15.26C81.0343 15.8333 81.1477 16.49 81.1477 17.23C81.1477 17.6033 81.1077 17.8567 81.0277 17.99C80.9477 18.1167 80.7943 18.18 80.5677 18.18H74.2177ZM85.5013 8.14V23H83.0312V8.14H85.5013ZM90.4322 20.34C90.7122 20.68 91.0155 20.92 91.3422 21.06C91.6755 21.2 92.0355 21.27 92.4222 21.27C92.7955 21.27 93.1322 21.2 93.4322 21.06C93.7322 20.92 93.9855 20.7067 94.1922 20.42C94.4055 20.1333 94.5689 19.7733 94.6822 19.34C94.7955 18.9 94.8522 18.3833 94.8522 17.79C94.8522 17.19 94.8022 16.6833 94.7022 16.27C94.6089 15.85 94.4722 15.51 94.2922 15.25C94.1122 14.99 93.8922 14.8 93.6322 14.68C93.3789 14.56 93.0889 14.5 92.7622 14.5C92.2489 14.5 91.8122 14.61 91.4522 14.83C91.0922 15.0433 90.7522 15.3467 90.4322 15.74V20.34ZM90.3022 14.14C90.7222 13.6667 91.1989 13.2833 91.7322 12.99C92.2655 12.6967 92.8922 12.55 93.6122 12.55C94.1722 12.55 94.6822 12.6667 95.1422 12.9C95.6089 13.1333 96.0089 13.4733 96.3422 13.92C96.6822 14.36 96.9422 14.9067 97.1222 15.56C97.3089 16.2067 97.4022 16.95 97.4022 17.79C97.4022 18.5567 97.2989 19.2667 97.0922 19.92C96.8855 20.5733 96.5889 21.14 96.2022 21.62C95.8222 22.1 95.3589 22.4767 94.8122 22.75C94.2722 23.0167 93.6655 23.15 92.9922 23.15C92.4189 23.15 91.9289 23.0633 91.5222 22.89C91.1155 22.71 90.7522 22.4633 90.4322 22.15V26.35H87.9622V12.74H89.4722C89.7922 12.74 90.0022 12.89 90.1022 13.19L90.3022 14.14ZM112.266 15.77C112.266 16.83 112.09 17.8033 111.736 18.69C111.383 19.5767 110.886 20.34 110.246 20.98C109.606 21.62 108.836 22.1167 107.936 22.47C107.036 22.8233 106.036 23 104.936 23H99.4264V8.54H104.936C106.036 8.54 107.036 8.72 107.936 9.08C108.836 9.43333 109.606 9.93 110.246 10.57C110.886 11.2033 111.383 11.9633 111.736 12.85C112.09 13.7367 112.266 14.71 112.266 15.77ZM109.506 15.77C109.506 14.9767 109.4 14.2667 109.186 13.64C108.98 13.0067 108.676 12.4733 108.276 12.04C107.883 11.6 107.403 11.2633 106.836 11.03C106.276 10.7967 105.643 10.68 104.936 10.68H102.126V20.86H104.936C105.643 20.86 106.276 20.7433 106.836 20.51C107.403 20.2767 107.883 19.9433 108.276 19.51C108.676 19.07 108.98 18.5367 109.186 17.91C109.4 17.2767 109.506 16.5633 109.506 15.77ZM120.725 16.69C120.725 16.37 120.678 16.07 120.585 15.79C120.498 15.5033 120.365 15.2533 120.185 15.04C120.005 14.8267 119.775 14.66 119.495 14.54C119.221 14.4133 118.901 14.35 118.535 14.35C117.821 14.35 117.258 14.5533 116.845 14.96C116.438 15.3667 116.178 15.9433 116.065 16.69H120.725ZM116.015 18.18C116.055 18.7067 116.148 19.1633 116.295 19.55C116.441 19.93 116.635 20.2467 116.875 20.5C117.115 20.7467 117.398 20.9333 117.725 21.06C118.058 21.18 118.425 21.24 118.825 21.24C119.225 21.24 119.568 21.1933 119.855 21.1C120.148 21.0067 120.401 20.9033 120.615 20.79C120.835 20.6767 121.025 20.5733 121.185 20.48C121.351 20.3867 121.511 20.34 121.665 20.34C121.871 20.34 122.025 20.4167 122.125 20.57L122.835 21.47C122.561 21.79 122.255 22.06 121.915 22.28C121.575 22.4933 121.218 22.6667 120.845 22.8C120.478 22.9267 120.101 23.0167 119.715 23.07C119.335 23.1233 118.965 23.15 118.605 23.15C117.891 23.15 117.228 23.0333 116.615 22.8C116.001 22.56 115.468 22.21 115.015 21.75C114.561 21.2833 114.205 20.71 113.945 20.03C113.685 19.3433 113.555 18.55 113.555 17.65C113.555 16.95 113.668 16.2933 113.895 15.68C114.121 15.06 114.445 14.5233 114.865 14.07C115.291 13.61 115.808 13.2467 116.415 12.98C117.028 12.7133 117.718 12.58 118.485 12.58C119.131 12.58 119.728 12.6833 120.275 12.89C120.821 13.0967 121.291 13.4 121.685 13.8C122.078 14.1933 122.385 14.68 122.605 15.26C122.831 15.8333 122.945 16.49 122.945 17.23C122.945 17.6033 122.905 17.8567 122.825 17.99C122.745 18.1167 122.591 18.18 122.365 18.18H116.015ZM131.058 14.74C130.991 14.8467 130.921 14.9233 130.848 14.97C130.775 15.01 130.681 15.03 130.568 15.03C130.448 15.03 130.318 14.9967 130.178 14.93C130.045 14.8633 129.888 14.79 129.708 14.71C129.528 14.6233 129.321 14.5467 129.088 14.48C128.861 14.4133 128.591 14.38 128.278 14.38C127.791 14.38 127.408 14.4833 127.128 14.69C126.855 14.8967 126.718 15.1667 126.718 15.5C126.718 15.72 126.788 15.9067 126.928 16.06C127.075 16.2067 127.265 16.3367 127.498 16.45C127.738 16.5633 128.008 16.6667 128.308 16.76C128.608 16.8467 128.911 16.9433 129.218 17.05C129.531 17.1567 129.838 17.28 130.138 17.42C130.438 17.5533 130.705 17.7267 130.938 17.94C131.178 18.1467 131.368 18.3967 131.508 18.69C131.655 18.9833 131.728 19.3367 131.728 19.75C131.728 20.2433 131.638 20.7 131.458 21.12C131.285 21.5333 131.025 21.8933 130.678 22.2C130.331 22.5 129.901 22.7367 129.388 22.91C128.881 23.0767 128.295 23.16 127.628 23.16C127.275 23.16 126.928 23.1267 126.588 23.06C126.255 23 125.931 22.9133 125.618 22.8C125.311 22.6867 125.025 22.5533 124.758 22.4C124.498 22.2467 124.268 22.08 124.068 21.9L124.638 20.96C124.711 20.8467 124.798 20.76 124.898 20.7C124.998 20.64 125.125 20.61 125.278 20.61C125.431 20.61 125.575 20.6533 125.708 20.74C125.848 20.8267 126.008 20.92 126.188 21.02C126.368 21.12 126.578 21.2133 126.818 21.3C127.065 21.3867 127.375 21.43 127.748 21.43C128.041 21.43 128.291 21.3967 128.498 21.33C128.711 21.2567 128.885 21.1633 129.018 21.05C129.158 20.9367 129.258 20.8067 129.318 20.66C129.385 20.5067 129.418 20.35 129.418 20.19C129.418 19.95 129.345 19.7533 129.198 19.6C129.058 19.4467 128.868 19.3133 128.628 19.2C128.395 19.0867 128.125 18.9867 127.818 18.9C127.518 18.8067 127.208 18.7067 126.888 18.6C126.575 18.4933 126.265 18.37 125.958 18.23C125.658 18.0833 125.388 17.9 125.148 17.68C124.915 17.46 124.725 17.19 124.578 16.87C124.438 16.55 124.368 16.1633 124.368 15.71C124.368 15.29 124.451 14.89 124.618 14.51C124.785 14.13 125.028 13.8 125.348 13.52C125.675 13.2333 126.078 13.0067 126.558 12.84C127.045 12.6667 127.605 12.58 128.238 12.58C128.945 12.58 129.588 12.6967 130.168 12.93C130.748 13.1633 131.231 13.47 131.618 13.85L131.058 14.74ZM136.057 8.14V16.65H136.517C136.684 16.65 136.814 16.63 136.907 16.59C137.007 16.5433 137.107 16.4533 137.207 16.32L139.757 13.17C139.864 13.03 139.981 12.9233 140.107 12.85C140.241 12.7767 140.411 12.74 140.617 12.74H142.877L139.687 16.55C139.461 16.85 139.214 17.08 138.947 17.24C139.087 17.34 139.211 17.4567 139.317 17.59C139.431 17.7233 139.537 17.8667 139.637 18.02L143.057 23H140.827C140.634 23 140.467 22.97 140.327 22.91C140.187 22.8433 140.071 22.7267 139.977 22.56L137.357 18.67C137.264 18.5167 137.167 18.4167 137.067 18.37C136.967 18.3233 136.817 18.3 136.617 18.3H136.057V23H133.587V8.14H136.057Z" fill="#F9FAFA"/>
<path d="M61.0861 37.27L60.2061 34.865C60.1628 34.7583 60.1178 34.6317 60.0711 34.485C60.0245 34.3383 59.9778 34.18 59.9311 34.01C59.8878 34.18 59.8428 34.34 59.7961 34.49C59.7495 34.6367 59.7045 34.765 59.6611 34.875L58.7861 37.27H61.0861ZM63.4611 40H62.4211C62.3045 40 62.2095 39.9717 62.1361 39.915C62.0628 39.855 62.0078 39.7817 61.9711 39.695L61.4311 38.22H58.4361L57.8961 39.695C57.8695 39.7717 57.8178 39.8417 57.7411 39.905C57.6645 39.9683 57.5695 40 57.4561 40H56.4061L59.2511 32.77H60.6211L63.4611 40ZM71.2295 36.385C71.2295 36.915 71.1412 37.4017 70.9645 37.845C70.7878 38.2883 70.5395 38.67 70.2195 38.99C69.8995 39.31 69.5145 39.5583 69.0645 39.735C68.6145 39.9117 68.1145 40 67.5645 40H64.8095V32.77H67.5645C68.1145 32.77 68.6145 32.86 69.0645 33.04C69.5145 33.2167 69.8995 33.465 70.2195 33.785C70.5395 34.1017 70.7878 34.4817 70.9645 34.925C71.1412 35.3683 71.2295 35.855 71.2295 36.385ZM69.8495 36.385C69.8495 35.9883 69.7962 35.6333 69.6895 35.32C69.5862 35.0033 69.4345 34.7367 69.2345 34.52C69.0378 34.3 68.7978 34.1317 68.5145 34.015C68.2345 33.8983 67.9178 33.84 67.5645 33.84H66.1595V38.93H67.5645C67.9178 38.93 68.2345 38.8717 68.5145 38.755C68.7978 38.6383 69.0378 38.4717 69.2345 38.255C69.4345 38.035 69.5862 37.7683 69.6895 37.455C69.7962 37.1383 69.8495 36.7817 69.8495 36.385ZM80.8569 32.77V40H79.6719V35.33C79.6719 35.1433 79.6819 34.9417 79.7019 34.725L77.5169 38.83C77.4136 39.0267 77.2552 39.125 77.0419 39.125H76.8519C76.6386 39.125 76.4802 39.0267 76.3769 38.83L74.1669 34.71C74.1769 34.82 74.1852 34.9283 74.1919 35.035C74.1986 35.1417 74.2019 35.24 74.2019 35.33V40H73.0169V32.77H74.0319C74.0919 32.77 74.1436 32.7717 74.1869 32.775C74.2302 32.7783 74.2686 32.7867 74.3019 32.8C74.3386 32.8133 74.3702 32.835 74.3969 32.865C74.4269 32.895 74.4552 32.935 74.4819 32.985L76.6469 37C76.7036 37.1067 76.7552 37.2167 76.8019 37.33C76.8519 37.4433 76.9002 37.56 76.9469 37.68C76.9936 37.5567 77.0419 37.4383 77.0919 37.325C77.1419 37.2083 77.1952 37.0967 77.2519 36.99L79.3869 32.985C79.4136 32.935 79.4419 32.895 79.4719 32.865C79.5019 32.835 79.5336 32.8133 79.5669 32.8C79.6036 32.7867 79.6436 32.7783 79.6869 32.775C79.7302 32.7717 79.7819 32.77 79.8419 32.77H80.8569ZM84.42 40H83.07V32.77H84.42V40ZM92.7338 32.77V40H92.0438C91.9371 40 91.8471 39.9833 91.7738 39.95C91.7038 39.9133 91.6355 39.8533 91.5688 39.77L87.7938 34.95C87.8138 35.17 87.8238 35.3733 87.8238 35.56V40H86.6388V32.77H87.3438C87.4005 32.77 87.4488 32.7733 87.4888 32.78C87.5321 32.7833 87.5688 32.7933 87.5988 32.81C87.6321 32.8233 87.6638 32.845 87.6938 32.875C87.7238 32.9017 87.7571 32.9383 87.7938 32.985L91.5838 37.825C91.5738 37.7083 91.5655 37.5933 91.5588 37.48C91.5521 37.3667 91.5488 37.2617 91.5488 37.165V32.77H92.7338Z" fill="#8996EB"/>
<defs>
<linearGradient id="paint0_linear_5137_2645" x1="-4.80333" y1="-3.55667" x2="40.3884" y2="42.7778" gradientUnits="userSpaceOnUse">
<stop offset="0.0363151" stop-color="#3B53F1"/>
<stop offset="0.524591" stop-color="#6D80FD"/>
<stop offset="1" stop-color="#C9D0FE"/>
</linearGradient>
<linearGradient id="paint1_linear_5137_2645" x1="-4.80333" y1="-3.55667" x2="40.3884" y2="42.7778" gradientUnits="userSpaceOnUse">
<stop offset="0.0363151" stop-color="#3B53F1"/>
<stop offset="0.524591" stop-color="#6D80FD"/>
<stop offset="1" stop-color="#C9D0FE"/>
</linearGradient>
<linearGradient id="paint2_linear_5137_2645" x1="-4.80333" y1="-3.55667" x2="40.3884" y2="42.7778" gradientUnits="userSpaceOnUse">
<stop offset="0.0363151" stop-color="#3B53F1"/>
<stop offset="0.524591" stop-color="#6D80FD"/>
<stop offset="1" stop-color="#C9D0FE"/>
</linearGradient>
<linearGradient id="paint3_linear_5137_2645" x1="-4.80333" y1="-3.55667" x2="40.3884" y2="42.7778" gradientUnits="userSpaceOnUse">
<stop offset="0.0363151" stop-color="#3B53F1"/>
<stop offset="0.524591" stop-color="#6D80FD"/>
<stop offset="1" stop-color="#C9D0FE"/>
</linearGradient>
<linearGradient id="paint4_linear_5137_2645" x1="-4.80333" y1="-3.55667" x2="40.3884" y2="42.7778" gradientUnits="userSpaceOnUse">
<stop offset="0.0363151" stop-color="#3B53F1"/>
<stop offset="0.524591" stop-color="#6D80FD"/>
<stop offset="1" stop-color="#C9D0FE"/>
</linearGradient>
<linearGradient id="paint5_linear_5137_2645" x1="-4.80333" y1="-3.55667" x2="40.3884" y2="42.7778" gradientUnits="userSpaceOnUse">
<stop offset="0.0363151" stop-color="#3B53F1"/>
<stop offset="0.524591" stop-color="#6D80FD"/>
<stop offset="1" stop-color="#C9D0FE"/>
</linearGradient>
<linearGradient id="paint6_linear_5137_2645" x1="-4.80333" y1="-3.55667" x2="40.3884" y2="42.7778" gradientUnits="userSpaceOnUse">
<stop offset="0.0363151" stop-color="#3B53F1"/>
<stop offset="0.524591" stop-color="#6D80FD"/>
<stop offset="1" stop-color="#C9D0FE"/>
</linearGradient>
<linearGradient id="paint7_linear_5137_2645" x1="-4.80333" y1="-3.55667" x2="40.3884" y2="42.7778" gradientUnits="userSpaceOnUse">
<stop offset="0.0363151" stop-color="#3B53F1"/>
<stop offset="0.524591" stop-color="#6D80FD"/>
<stop offset="1" stop-color="#C9D0FE"/>
</linearGradient>
<linearGradient id="paint8_linear_5137_2645" x1="-4.80333" y1="-3.55667" x2="40.3884" y2="42.7778" gradientUnits="userSpaceOnUse">
<stop offset="0.0363151" stop-color="#3B53F1"/>
<stop offset="0.524591" stop-color="#6D80FD"/>
<stop offset="1" stop-color="#C9D0FE"/>
</linearGradient>
<linearGradient id="paint9_linear_5137_2645" x1="-4.80333" y1="-3.55667" x2="40.3884" y2="42.7778" gradientUnits="userSpaceOnUse">
<stop offset="0.0363151" stop-color="#3B53F1"/>
<stop offset="0.524591" stop-color="#6D80FD"/>
<stop offset="1" stop-color="#C9D0FE"/>
</linearGradient>
<linearGradient id="paint10_linear_5137_2645" x1="-4.80333" y1="-3.55667" x2="40.3884" y2="42.7778" gradientUnits="userSpaceOnUse">
<stop offset="0.0363151" stop-color="#3B53F1"/>
<stop offset="0.524591" stop-color="#6D80FD"/>
<stop offset="1" stop-color="#C9D0FE"/>
</linearGradient>
<linearGradient id="paint11_linear_5137_2645" x1="-4.80333" y1="-3.55667" x2="40.3884" y2="42.7778" gradientUnits="userSpaceOnUse">
<stop offset="0.0363151" stop-color="#3B53F1"/>
<stop offset="0.524591" stop-color="#6D80FD"/>
<stop offset="1" stop-color="#C9D0FE"/>
</linearGradient>
<linearGradient id="paint12_linear_5137_2645" x1="-4.80333" y1="-3.55667" x2="40.3884" y2="42.7778" gradientUnits="userSpaceOnUse">
<stop offset="0.0363151" stop-color="#3B53F1"/>
<stop offset="0.524591" stop-color="#6D80FD"/>
<stop offset="1" stop-color="#C9D0FE"/>
</linearGradient>
<linearGradient id="paint13_linear_5137_2645" x1="-4.80333" y1="-3.55667" x2="40.3884" y2="42.7778" gradientUnits="userSpaceOnUse">
<stop offset="0.0363151" stop-color="#3B53F1"/>
<stop offset="0.524591" stop-color="#6D80FD"/>
<stop offset="1" stop-color="#C9D0FE"/>
</linearGradient>
<linearGradient id="paint14_linear_5137_2645" x1="-4.80333" y1="-3.55667" x2="40.3884" y2="42.7778" gradientUnits="userSpaceOnUse">
<stop offset="0.0363151" stop-color="#3B53F1"/>
<stop offset="0.524591" stop-color="#6D80FD"/>
<stop offset="1" stop-color="#C9D0FE"/>
</linearGradient>
<linearGradient id="paint15_linear_5137_2645" x1="-4.80333" y1="-3.55667" x2="40.3884" y2="42.7778" gradientUnits="userSpaceOnUse">
<stop offset="0.0363151" stop-color="#3B53F1"/>
<stop offset="0.524591" stop-color="#6D80FD"/>
<stop offset="1" stop-color="#C9D0FE"/>
</linearGradient>
</defs>
</svg>
